<svg width="233" height="62" viewBox="0 0 233 62" fill="none" xmlns="http://www.w3.org/2000/svg">
<path d="M158.467 13.4399V49.2168H232.387V13.4399H158.467ZM180.597 41.6057H168.093V20.5291H172.45V38.0614H180.597V41.6057ZM201.222 41.909C200.893 41.9236 200.569 41.8291 200.3 41.6402C200.064 41.4628 199.881 41.2242 199.77 40.9503L198.347 36.9264H189.953L188.529 40.9503C188.419 41.21 188.244 41.4372 188.021 41.6107C187.761 41.8156 187.436 41.9213 187.105 41.909H183.692L191.928 20.8335H196.387L204.609 41.9101L201.222 41.909ZM223.423 38.1321C223.077 38.8996 222.564 39.5798 221.92 40.1224C221.203 40.7157 220.377 41.1623 219.487 41.4366C218.413 41.7677 217.292 41.9272 216.168 41.909H208.008V20.8335H215.488C216.709 20.8111 217.927 20.9453 219.113 21.233C219.998 21.4446 220.832 21.8296 221.567 22.3658C222.179 22.8262 222.657 23.4406 222.954 24.1463C223.253 24.8885 223.402 25.683 223.39 26.4832C223.392 26.956 223.321 27.4263 223.179 27.8775C223.035 28.3308 222.814 28.756 222.526 29.1345C222.206 29.5497 221.821 29.9101 221.386 30.2016C220.872 30.5456 220.315 30.8194 219.729 31.0157C220.933 31.2314 222.043 31.809 222.91 32.6715C223.62 33.4968 223.989 34.5613 223.942 35.6489C223.95 36.5039 223.774 37.3506 223.427 38.1321H223.423Z" fill="#FFC872"/>
<path d="M216.854 29.6853C217.28 29.6041 217.685 29.4387 218.046 29.199C218.364 28.9771 218.618 28.6736 218.779 28.3204C218.958 27.9065 219.045 27.4583 219.033 27.0073C219.044 26.5531 218.973 26.1007 218.822 25.672C218.695 25.3198 218.47 25.011 218.174 24.7817C217.845 24.5419 217.468 24.3758 217.07 24.2949C216.549 24.1856 216.018 24.1345 215.486 24.1424H212.363V29.8378H215.225C215.772 29.8441 216.318 29.793 216.854 29.6853Z" fill="#FFC872"/>
<path d="M194.58 26.2646C194.43 25.8095 194.287 25.3157 194.152 24.7834C194.016 25.3254 193.873 25.8261 193.723 26.2857C193.574 26.7453 193.431 27.1448 193.295 27.4842L191.029 33.904H197.289L195.008 27.4553C194.873 27.1166 194.731 26.7197 194.58 26.2646Z" fill="#FFC872"/>
<path d="M218.83 33.5343C218.508 33.2758 218.134 33.0899 217.734 32.9896C217.19 32.8525 216.631 32.7891 216.071 32.801H212.367V38.567H216.1C216.684 38.5848 217.267 38.4987 217.821 38.3127C218.227 38.1711 218.597 37.9403 218.903 37.6372C219.169 37.3666 219.363 37.0349 219.47 36.6713C219.577 36.3055 219.63 35.9263 219.629 35.5452C219.635 35.1545 219.571 34.766 219.441 34.3978C219.317 34.0615 219.106 33.7637 218.83 33.5343Z" fill="#FFC872"/>
<path d="M75.9428 18.3865V44.4262C75.937 44.7136 75.8202 44.9875 75.6169 45.1907C75.4136 45.3939 75.1396 45.5105 74.8523 45.5162C74.5603 45.5128 74.2806 45.3981 74.0702 45.1955C73.8598 44.993 73.7345 44.7179 73.72 44.4262V42.2034C72.9228 43.3333 71.8682 44.2573 70.6432 44.899C69.4182 45.5406 68.0581 45.8815 66.6753 45.8935C61.3082 45.8935 57.6182 41.7838 57.6182 35.2845C57.6182 28.8691 61.3082 24.6338 66.6753 24.6338C68.0624 24.647 69.4261 24.9928 70.6519 25.6422C71.8777 26.2915 72.9298 27.2254 73.72 28.3656V18.3865C73.7345 18.0947 73.8598 17.8195 74.0701 17.6169C74.2805 17.4143 74.5602 17.2995 74.8523 17.2959C75.1397 17.3016 75.4138 17.4183 75.6171 17.6216C75.8204 17.8249 75.9371 18.099 75.9428 18.3865ZM73.72 40.3166V30.2946C72.9974 29.1791 72.011 28.2588 70.8481 27.6152C69.6852 26.9716 68.3816 26.6245 67.0526 26.6046C62.5657 26.6046 59.9662 30.3781 59.9662 35.2845C59.9662 40.1909 62.5663 43.9227 67.0526 43.9227C68.3737 43.9093 69.6717 43.5739 70.8339 42.9455C71.9961 42.3171 72.9875 41.4147 73.7222 40.3166H73.72Z" fill="white"/>
<path d="M80.2632 19.2666C80.2716 18.8244 80.451 18.4026 80.7639 18.0899C81.0767 17.7772 81.4985 17.5979 81.9407 17.5896C82.3856 17.5896 82.8122 17.7663 83.1268 18.0809C83.4413 18.3954 83.618 18.822 83.618 19.2669C83.618 19.7117 83.4413 20.1383 83.1268 20.4529C82.8122 20.7675 82.3856 20.9442 81.9407 20.9442C81.4985 20.9358 81.0766 20.7563 80.7638 20.4435C80.451 20.1307 80.2716 19.7089 80.2632 19.2666ZM80.8502 44.4261V26.1015C80.8502 25.8123 80.965 25.535 81.1695 25.3305C81.374 25.1261 81.6513 25.0112 81.9405 25.0112C82.2296 25.0112 82.5069 25.1261 82.7114 25.3305C82.9159 25.535 83.0307 25.8123 83.0307 26.1015V44.4261C83.0307 44.7153 82.9159 44.9926 82.7114 45.1971C82.5069 45.4015 82.2296 45.5164 81.9405 45.5164C81.6513 45.5164 81.374 45.4015 81.1695 45.1971C80.965 44.9926 80.8502 44.7153 80.8502 44.4261Z" fill="white"/>
<path d="M105.086 26.1014V45.1805C105.086 51.3861 100.893 53.6084 95.9447 53.6084C92.8845 53.6084 90.8291 53.1076 88.6486 51.1346C88.5241 51.0439 88.4244 50.9234 88.3585 50.7843C88.2926 50.6451 88.2626 50.4916 88.2713 50.3379C88.2695 50.2052 88.2943 50.0736 88.3442 49.9507C88.3941 49.8278 88.4682 49.7162 88.5619 49.6223C88.6557 49.5285 88.7673 49.4544 88.8902 49.4045C89.013 49.3545 89.1447 49.3296 89.2773 49.3313C89.5111 49.3326 89.7358 49.4225 89.906 49.5828C91.5413 51.1346 93.3446 51.7211 95.9441 51.7211C99.6342 51.7211 102.863 49.8761 102.863 45.2217V42.0775C102.052 43.1962 100.995 44.1143 99.7743 44.7612C98.5532 45.4081 97.2001 45.7666 95.8189 45.8093C90.4519 45.8093 86.7612 41.742 86.7612 35.242C86.7612 28.8267 90.4513 24.6331 95.8189 24.6331C97.206 24.6464 98.5695 24.9922 99.7952 25.6416C101.021 26.2909 102.073 27.2248 102.863 28.3649V26.1003C102.877 25.8151 103.001 25.5464 103.208 25.3496C103.414 25.1528 103.689 25.0431 103.974 25.0431C104.26 25.0431 104.535 25.1528 104.741 25.3496C104.948 25.5464 105.072 25.8151 105.086 26.1003V26.1014ZM102.863 40.1484V30.2928C102.137 29.1809 101.149 28.2635 99.9873 27.6203C98.8252 26.9772 97.5236 26.6279 96.1956 26.6027C91.7088 26.6027 89.1093 30.3345 89.1093 35.2409C89.1093 40.1473 91.7088 43.8368 96.1956 43.8368C97.5234 43.8119 98.825 43.4628 99.987 42.8199C101.149 42.1771 102.136 41.26 102.863 40.1484Z" fill="white"/>
<path d="M109.361 19.2666C109.369 18.8245 109.549 18.4028 109.861 18.0901C110.174 17.7774 110.596 17.598 111.038 17.5896C111.483 17.5896 111.909 17.7663 112.224 18.0809C112.538 18.3954 112.715 18.822 112.715 19.2669C112.715 19.7117 112.538 20.1383 112.224 20.4529C111.909 20.7675 111.483 20.9442 111.038 20.9442C110.596 20.9358 110.174 20.7563 109.861 20.4435C109.548 20.1307 109.369 19.7088 109.361 19.2666ZM109.948 44.4261V26.1015C109.948 25.8123 110.063 25.535 110.267 25.3305C110.472 25.1261 110.749 25.0112 111.038 25.0112C111.327 25.0112 111.605 25.1261 111.809 25.3305C112.014 25.535 112.128 25.8123 112.128 26.1015V44.4261C112.128 44.7153 112.014 44.9926 111.809 45.1971C111.605 45.4015 111.327 45.5164 111.038 45.5164C110.749 45.5164 110.472 45.4015 110.267 45.1971C110.063 44.9926 109.948 44.7153 109.948 44.4261Z" fill="white"/>
<path d="M124.751 44.258C124.756 44.4311 124.711 44.602 124.623 44.7507C124.534 44.8994 124.405 45.0196 124.25 45.0971C123.423 45.657 122.438 45.9363 121.44 45.8939C118.756 45.8939 117.457 44.2586 117.457 41.491V27.0662H114.982C114.852 27.0716 114.722 27.0507 114.601 27.0047C114.479 26.9586 114.368 26.8884 114.274 26.7983C114.18 26.7082 114.105 26.6001 114.054 26.4804C114.003 26.3606 113.977 26.2318 113.977 26.1017C113.977 25.9715 114.003 25.8427 114.054 25.723C114.105 25.6033 114.18 25.4951 114.274 25.405C114.368 25.3149 114.479 25.2448 114.601 25.1987C114.722 25.1527 114.852 25.1317 114.982 25.1372H117.457V20.5663C117.472 20.2821 117.596 20.0147 117.803 19.8191C118.009 19.6234 118.283 19.5144 118.568 19.5144C118.852 19.5144 119.126 19.6234 119.333 19.8191C119.539 20.0147 119.663 20.2821 119.679 20.5663V25.1372H122.906C123.036 25.1317 123.166 25.1527 123.288 25.1987C123.409 25.2448 123.521 25.3149 123.614 25.405C123.708 25.4951 123.783 25.6033 123.834 25.723C123.885 25.8427 123.912 25.9715 123.912 26.1017C123.912 26.2318 123.885 26.3606 123.834 26.4804C123.783 26.6001 123.708 26.7082 123.614 26.7983C123.521 26.8884 123.409 26.9586 123.288 27.0047C123.166 27.0507 123.036 27.0716 122.906 27.0662H119.679V41.1533C119.679 42.7886 120.35 43.9208 121.775 43.9208C122.991 43.9208 123.285 43.2921 123.788 43.2921C123.915 43.2902 124.041 43.3139 124.159 43.3619C124.277 43.4098 124.384 43.4809 124.474 43.571C124.564 43.6611 124.635 43.7684 124.682 43.8864C124.73 44.0044 124.753 44.1308 124.751 44.258Z" fill="white"/>
<path d="M141.73 31.1329V44.4254C141.73 44.7146 141.615 44.9919 141.411 45.1963C141.206 45.4008 140.929 45.5157 140.64 45.5157C140.351 45.5157 140.073 45.4008 139.869 45.1963C139.665 44.9919 139.55 44.7146 139.55 44.4254V42.9159C138.701 43.8969 137.642 44.6741 136.451 45.1895C135.261 45.705 133.969 45.9455 132.673 45.8932C129.193 45.8932 125.587 43.5006 125.587 39.1423C125.587 34.7395 129.151 32.4332 132.673 32.4332C135.483 32.4332 137.789 33.3557 139.55 35.3265V31.2169C139.55 28.1978 137.118 26.5626 134.097 26.5626C133.031 26.5324 131.971 26.7302 130.987 27.1428C130.004 27.5554 129.12 28.1733 128.394 28.9551C128.214 29.0924 127.993 29.1662 127.766 29.1649C127.638 29.167 127.512 29.1435 127.394 29.0957C127.276 29.048 127.169 28.977 127.079 28.887C126.989 28.797 126.918 28.6898 126.87 28.5718C126.822 28.4537 126.799 28.3273 126.801 28.2001C126.798 28.0637 126.827 27.9286 126.885 27.8051C126.943 27.6815 127.028 27.5729 127.135 27.4873C128.072 26.5368 129.198 25.7923 130.44 25.3014C131.682 24.8105 133.012 24.584 134.347 24.6363C138.46 24.6335 141.73 26.6043 141.73 31.1329ZM139.55 41.4063V36.9612C138.814 36.0543 137.879 35.3291 136.817 34.8419C135.756 34.3546 134.597 34.1183 133.429 34.1514C130.075 34.1514 127.894 36.2902 127.894 39.1835C127.894 42.0345 130.075 44.1733 133.429 44.1733C134.594 44.2143 135.752 43.9858 136.813 43.5059C137.875 43.026 138.812 42.3075 139.55 41.4063H139.55Z" fill="white"/>
<path d="M146.637 44.4262V18.3864C146.637 18.0973 146.752 17.8201 146.956 17.6156C147.161 17.4112 147.438 17.2964 147.727 17.2964C148.016 17.2964 148.294 17.4112 148.498 17.6156C148.702 17.8201 148.817 18.0973 148.817 18.3864V44.4262C148.817 44.7152 148.702 44.9925 148.498 45.1969C148.294 45.4013 148.016 45.5161 147.727 45.5161C147.438 45.5161 147.161 45.4013 146.956 45.1969C146.752 44.9925 146.637 44.7152 146.637 44.4262Z" fill="white"/>
<g clip-path="url(#clip0)">
<path d="M29.666 54.5212C29.5404 54.5212 29.412 54.4898 29.2973 54.43L14.9109 46.8371C14.6351 46.6917 14.4603 46.3981 14.4603 46.0761L14.4412 15.8698C14.4412 15.5734 14.5886 15.297 14.829 15.143C15.072 14.9863 15.3724 14.972 15.6264 15.106L30.1248 22.7017C30.4033 22.8471 30.5781 23.1464 30.5754 23.4713L30.4853 38.01L44.544 45.3094C44.8226 45.4547 44.9973 45.7483 44.9973 46.0732C44.9973 46.3981 44.8226 46.6946 44.544 46.8399L30.0265 54.4356C29.9172 54.4927 29.7916 54.5212 29.666 54.5212ZM16.0988 45.5459L29.666 52.7084L42.3484 46.0732L29.3001 39.3012C29.0188 39.1558 28.844 38.8566 28.8467 38.5288L28.9368 23.9872L16.0824 17.255L16.0988 45.5459Z" fill="#FFFCFC"/>
<path d="M15.3723 61.9982C15.2467 61.9982 15.1238 61.9697 15.0091 61.9099L0.456063 54.374C0.174778 54.2287 0 53.9322 0 53.6045L0.0382328 23.4781C0.0382328 23.156 0.213011 22.8624 0.486103 22.7171L13.4388 15.8709L0.565299 9.15305C0.286746 9.00769 0.111967 8.71412 0.111967 8.3892C0.111967 8.06428 0.286746 7.77071 0.562568 7.62535L14.9299 0.0894769C15.162 -0.0330808 15.4324 -0.0330808 15.6645 0.0894769L44.5303 15.1612C44.8088 15.3066 44.9836 15.603 44.9836 15.9251L45.0027 46.0686C45.0027 46.3935 44.828 46.6871 44.5494 46.8324L15.741 61.907C15.6236 61.9669 15.4979 61.9982 15.3723 61.9982ZM1.63855 53.0772L15.3696 60.1884L43.3615 45.5442L43.3423 16.4552L15.2986 1.81099L2.75822 8.38635L15.6263 15.1014C15.9021 15.2467 16.0796 15.5403 16.0796 15.8652C16.0796 16.1873 15.9076 16.4837 15.6318 16.6291L1.67405 24.0082L1.63855 53.0772Z" fill="#FFFCFC"/>
<path d="M15.3533 16.0694C15.3314 16.0694 15.3123 16.0637 15.2932 16.0552L0.8521 8.51928C0.805675 8.49648 0.775635 8.44518 0.775635 8.39102C0.775635 8.33687 0.805675 8.28842 0.8521 8.26276L15.2932 0.726887C15.3341 0.704085 15.386 0.706935 15.427 0.732587C15.468 0.758239 15.4925 0.803842 15.4925 0.855145V15.9269C15.4925 15.9754 15.468 16.021 15.427 16.0495C15.4051 16.0637 15.3806 16.0694 15.3533 16.0694ZM1.21804 8.39102L15.2167 15.696V1.08601L1.21804 8.39102Z" fill="#FFFCFC"/>
<path d="M15.2794 16.0694C15.2548 16.0694 15.2302 16.0637 15.2084 16.0495C15.1674 16.0238 15.1428 15.9782 15.1428 15.9269V0.855145C15.1428 0.806692 15.1674 0.761089 15.2084 0.732587C15.2493 0.706935 15.2985 0.704085 15.3422 0.726887L29.7832 8.26276C29.8297 8.28557 29.8597 8.33687 29.8597 8.39102C29.8597 8.44518 29.8297 8.49363 29.7832 8.51928L15.3394 16.0552C15.3203 16.0666 15.3012 16.0694 15.2794 16.0694ZM15.4159 1.08601V15.696L29.4146 8.39102L15.4159 1.08601Z" fill="#FFFCFC"/>
<path d="M15.3533 61.2874C15.3314 61.2874 15.3123 61.2817 15.2932 61.2732L0.8521 53.7373C0.805675 53.7145 0.775635 53.6632 0.775635 53.609C0.775635 53.5549 0.805675 53.5064 0.8521 53.4808L15.2932 45.9449C15.3341 45.9221 15.386 45.925 15.427 45.9506C15.468 45.9763 15.4925 46.0219 15.4925 46.0732V61.1449C15.4925 61.1934 15.468 61.239 15.427 61.2675C15.4051 61.2789 15.3806 61.2874 15.3533 61.2874ZM1.21804 53.609L15.2167 60.9141V46.304L1.21804 53.609Z" fill="#FFFCFC"/>
<path d="M15.2794 61.2874C15.2548 61.2874 15.2302 61.2789 15.2084 61.2675C15.1674 61.2418 15.1428 61.1962 15.1428 61.1449V46.0732C15.1428 46.0247 15.1674 45.9791 15.2084 45.9506C15.2493 45.925 15.2985 45.9221 15.3422 45.9449L29.7832 53.4808C29.8297 53.5036 29.8597 53.5549 29.8597 53.609C29.8597 53.6632 29.8297 53.7116 29.7832 53.7373L15.3422 61.2732C15.3203 61.2817 15.3012 61.2874 15.2794 61.2874ZM15.4159 46.304V60.9141L29.4146 53.609L15.4159 46.304Z" fill="#FFFCFC"/>
<path d="M29.7588 23.6053C29.737 23.6053 29.7179 23.5996 29.6987 23.5911L15.2549 16.0552C15.2085 16.0324 15.1785 15.9811 15.1785 15.9269C15.1785 15.8728 15.2085 15.8243 15.2549 15.7987L29.696 8.26278C29.737 8.23997 29.7889 8.24282 29.8298 8.26848C29.8708 8.29413 29.8954 8.33973 29.8954 8.39103V23.4628C29.8954 23.5113 29.8708 23.5569 29.8298 23.5854C29.808 23.5996 29.7834 23.6053 29.7588 23.6053ZM15.6236 15.9269L29.6223 23.2319V8.6219L15.6236 15.9269Z" fill="#FFFCFC"/>
<path d="M15.2796 31.144C15.2577 31.144 15.2386 31.1383 15.2195 31.1298L0.775684 23.5911C0.729259 23.5683 0.699219 23.517 0.699219 23.4628C0.699219 23.4086 0.729259 23.3602 0.775684 23.3345L15.2168 15.7987C15.2605 15.7759 15.3096 15.7787 15.3506 15.8044C15.3915 15.83 15.4161 15.8756 15.4161 15.9269V30.9987C15.4161 31.0471 15.3915 31.0927 15.3506 31.1212C15.3287 31.1355 15.3041 31.144 15.2796 31.144ZM1.14436 23.4628L15.143 30.7678V16.1578L1.14436 23.4628Z" fill="#FFFCFC"/>
<path d="M29.6851 23.6053C29.6606 23.6053 29.636 23.5996 29.6141 23.5854C29.5732 23.5597 29.5486 23.5141 29.5486 23.4628V8.39103C29.5486 8.34258 29.5732 8.29698 29.6141 8.26848C29.6551 8.24282 29.7042 8.23997 29.7479 8.26278L44.189 15.7987C44.2355 15.8215 44.2655 15.8728 44.2655 15.9269C44.2655 15.9811 44.2355 16.0295 44.189 16.0552L29.7479 23.5911C29.7261 23.6025 29.7042 23.6053 29.6851 23.6053ZM29.8217 8.6219V23.2319L43.8204 15.9269L29.8217 8.6219Z" fill="#FFFCFC"/>
<path d="M44.1643 46.2159C44.1424 46.2159 44.1233 46.2102 44.1042 46.2016L29.6631 38.6658C29.6167 38.643 29.5867 38.5917 29.5867 38.5375C29.5867 38.4834 29.6167 38.4349 29.6631 38.4092L44.1042 30.8734C44.1452 30.8506 44.1971 30.8534 44.238 30.8791C44.279 30.9047 44.3036 30.9503 44.3036 31.0016V46.0734C44.3036 46.1218 44.279 46.1674 44.238 46.1959C44.2134 46.2073 44.1889 46.2159 44.1643 46.2159ZM30.0263 38.5375L44.025 45.8425V31.2325L30.0263 38.5375Z" fill="#FFFCFC"/>
<path d="M0.80012 38.6799C0.775542 38.6799 0.750964 38.6714 0.729116 38.66C0.688152 38.6343 0.663574 38.5887 0.663574 38.5374V23.4628C0.663574 23.4144 0.688152 23.3688 0.729116 23.3403C0.77008 23.3146 0.819236 23.3118 0.862931 23.3346L15.304 30.8704C15.3504 30.8932 15.3805 30.9445 15.3805 30.9987C15.3805 31.0528 15.3504 31.1013 15.304 31.1269L0.862931 38.6628C0.841084 38.6742 0.821967 38.6799 0.80012 38.6799ZM0.936666 23.6937V38.3066L14.9353 31.0015L0.936666 23.6937Z" fill="#FFFCFC"/>
<path d="M15.2796 46.2158C15.2577 46.2158 15.2386 46.2101 15.2195 46.2016L0.775684 38.6628C0.729259 38.64 0.699219 38.5887 0.699219 38.5346C0.699219 38.4804 0.729259 38.432 0.775684 38.4063L15.2168 30.8704C15.2605 30.8476 15.3096 30.8505 15.3506 30.8761C15.3915 30.9018 15.4161 30.9474 15.4161 30.9987V46.0705C15.4161 46.1189 15.3915 46.1645 15.3506 46.193C15.3287 46.2073 15.3041 46.2158 15.2796 46.2158ZM1.14436 38.5374L15.143 45.8425V31.2296L1.14436 38.5374Z" fill="#FFFCFC"/>
<path d="M0.80012 53.7515C0.775542 53.7515 0.750964 53.743 0.729116 53.7316C0.688152 53.7059 0.663574 53.6603 0.663574 53.609V38.5373C0.663574 38.4888 0.688152 38.4432 0.729116 38.4147C0.77008 38.3891 0.819236 38.3862 0.862931 38.409L15.304 45.9449C15.3504 45.9677 15.3805 46.019 15.3805 46.0732C15.3805 46.1273 15.3504 46.1758 15.304 46.2014L0.862931 53.7373C0.841084 53.7458 0.821967 53.7515 0.80012 53.7515ZM0.936666 38.7681V53.3782L14.9353 46.0732L0.936666 38.7681Z" fill="#FFFCFC"/>
<path d="M44.1452 31.1441C44.1234 31.1441 44.1043 31.1384 44.0852 31.1299L29.6441 23.594C29.5977 23.5712 29.5676 23.5199 29.5676 23.4657C29.5676 23.4116 29.5977 23.3631 29.6441 23.3375L44.0852 15.8016C44.1261 15.7788 44.178 15.7816 44.219 15.8073C44.2599 15.8329 44.2845 15.8785 44.2845 15.9299V31.0016C44.2845 31.0501 44.2599 31.0957 44.219 31.1242C44.1944 31.1356 44.1698 31.1441 44.1452 31.1441ZM30.0073 23.4629L44.006 30.7679V16.1579L30.0073 23.4629Z" fill="#FFFCFC"/>
<path d="M29.6658 38.6799C29.6413 38.6799 29.6167 38.6714 29.5948 38.66C29.5539 38.6343 29.5293 38.5887 29.5293 38.5374V23.4628C29.5293 23.4144 29.5539 23.3688 29.5948 23.3403C29.6358 23.3146 29.685 23.3118 29.7287 23.3346L44.1697 30.8704C44.2162 30.8932 44.2462 30.9445 44.2462 30.9987C44.2462 31.0528 44.2162 31.1013 44.1697 31.1269L29.7287 38.6628C29.7068 38.6742 29.685 38.6799 29.6658 38.6799ZM29.8024 23.6937V38.3066L43.8011 31.0015L29.8024 23.6937Z" fill="#FFFCFC"/>
<path d="M29.7205 53.7515C29.6714 53.7515 29.6222 53.723 29.5976 53.6717C29.5649 53.6005 29.5922 53.515 29.6577 53.4808L44.0988 45.9449C44.1671 45.9107 44.249 45.9392 44.2817 46.0076C44.3145 46.0789 44.2872 46.1644 44.2217 46.1986L29.7806 53.7344C29.7615 53.7458 29.7424 53.7515 29.7205 53.7515Z" fill="#FFFCFC"/>
</g>
<defs>
<clipPath id="clip0">
<rect width="45" height="62" fill="white"/>
</clipPath>
</defs>
</svg>
