<svg id="svg" version="1.1" xmlns="http://www.w3.org/2000/svg" xmlns:xlink="http://www.w3.org/1999/xlink" width="400" height="83.40675477239354" viewBox="0, 0, 400,83.40675477239354"><g id="svgg"><path id="path0" d="M243.335 3.663 C 242.954 4.375,243.179 6.833,243.625 6.833 C 243.766 6.833,244.427 7.096,245.094 7.417 C 245.762 7.737,246.388 8.000,246.487 8.000 C 246.586 8.000,246.667 8.075,246.667 8.167 C 246.667 8.258,246.760 8.334,246.875 8.334 C 246.990 8.334,247.452 8.522,247.903 8.751 C 248.354 8.979,248.854 9.167,249.014 9.167 C 249.175 9.167,249.331 9.223,249.361 9.292 C 249.414 9.410,249.723 9.569,252.381 10.843 C 253.003 11.141,253.552 11.450,253.601 11.529 C 253.650 11.608,253.750 11.635,253.823 11.589 C 253.897 11.544,254.323 11.693,254.770 11.919 C 255.217 12.146,255.677 12.332,255.792 12.333 C 255.906 12.333,256.000 12.408,256.000 12.500 C 256.000 12.592,256.114 12.667,256.252 12.667 C 256.391 12.667,256.654 12.742,256.836 12.833 C 257.018 12.925,257.316 13.075,257.498 13.167 C 257.680 13.258,257.903 13.333,257.993 13.333 C 258.084 13.333,258.553 13.514,259.037 13.735 C 259.521 13.956,260.027 14.168,260.161 14.206 C 260.458 14.289,258.804 15.118,258.042 15.268 C 257.744 15.327,257.500 15.478,257.500 15.604 C 257.500 15.730,257.359 15.833,257.188 15.833 C 257.016 15.833,256.528 16.027,256.104 16.264 C 255.680 16.501,255.333 16.652,255.333 16.600 C 255.333 16.547,254.928 16.723,254.433 16.991 C 253.938 17.259,253.499 17.444,253.457 17.402 C 253.415 17.360,253.286 17.440,253.170 17.579 C 253.054 17.719,252.887 17.833,252.798 17.833 C 252.710 17.833,251.950 18.161,251.110 18.561 C 248.069 20.009,247.367 20.333,247.275 20.333 C 247.224 20.333,246.672 20.568,246.049 20.855 C 245.426 21.142,244.565 21.536,244.135 21.730 C 243.247 22.132,243.198 22.240,243.202 23.790 C 243.206 25.288,243.363 25.591,243.967 25.269 C 244.214 25.138,244.717 24.907,245.083 24.757 C 245.450 24.607,245.880 24.412,246.039 24.325 C 246.199 24.238,246.442 24.167,246.581 24.167 C 246.720 24.167,246.833 24.092,246.833 24.000 C 246.833 23.908,246.931 23.833,247.051 23.833 C 247.334 23.833,249.067 22.977,249.139 22.802 C 249.169 22.727,249.302 22.667,249.433 22.667 C 249.638 22.667,251.654 21.792,252.548 21.315 C 252.713 21.227,252.930 21.207,253.033 21.270 C 253.145 21.340,253.171 21.309,253.099 21.192 C 253.034 21.087,253.060 20.991,253.157 20.979 C 253.585 20.929,253.646 20.910,253.764 20.792 C 253.833 20.723,254.026 20.667,254.194 20.667 C 254.363 20.667,254.500 20.592,254.500 20.500 C 254.500 20.408,254.606 20.333,254.736 20.333 C 254.867 20.333,255.185 20.231,255.445 20.105 C 255.937 19.868,257.004 19.385,258.000 18.951 C 258.321 18.810,259.071 18.477,259.667 18.209 C 260.262 17.941,261.106 17.578,261.541 17.402 C 261.976 17.227,262.332 17.027,262.333 16.958 C 262.333 16.890,262.408 16.833,262.500 16.833 C 262.591 16.833,263.116 16.628,263.666 16.376 L 264.667 15.920 264.662 14.418 L 264.658 12.917 263.037 12.133 C 262.146 11.702,260.817 11.076,260.083 10.741 C 259.350 10.406,258.375 9.955,257.917 9.739 C 257.458 9.523,256.540 9.102,255.875 8.803 C 255.210 8.504,254.667 8.204,254.667 8.135 C 254.667 8.067,254.558 8.052,254.425 8.103 C 254.293 8.154,253.974 8.080,253.717 7.938 C 252.930 7.504,251.699 7.000,251.426 7.000 C 251.283 7.000,251.167 6.925,251.167 6.833 C 251.167 6.742,251.073 6.667,250.958 6.667 C 250.843 6.667,250.224 6.415,249.583 6.108 C 248.941 5.801,248.173 5.446,247.875 5.318 C 247.577 5.190,247.333 5.035,247.333 4.973 C 247.333 4.911,247.109 4.811,246.835 4.750 C 246.561 4.690,246.294 4.572,246.242 4.487 C 246.190 4.403,246.001 4.333,245.823 4.333 C 245.646 4.333,245.500 4.258,245.500 4.167 C 245.500 4.075,245.350 4.000,245.167 4.000 C 244.983 4.000,244.833 3.934,244.833 3.853 C 244.833 3.772,244.665 3.669,244.458 3.624 C 244.252 3.579,243.958 3.490,243.804 3.425 C 243.613 3.344,243.466 3.419,243.335 3.663 M263.682 80.494 C 262.806 80.601,262.730 80.752,262.806 82.241 L 262.862 83.333 276.848 83.333 L 290.833 83.333 290.833 82.003 C 290.833 80.753,290.810 80.667,290.449 80.577 C 289.814 80.417,289.176 80.579,288.904 80.967 L 288.648 81.333 276.820 81.333 L 264.992 81.333 264.839 80.933 C 264.644 80.418,264.563 80.387,263.682 80.494 " stroke="none" fill="#dc5454" fill-rule="evenodd"></path><path id="path1" d="M276.333 0.123 C 276.196 0.176,275.952 0.369,275.792 0.552 C 275.631 0.735,275.500 0.840,275.500 0.787 C 275.500 0.733,275.062 1.115,274.527 1.636 C 273.993 2.157,273.576 2.626,273.602 2.678 C 273.628 2.730,273.492 2.880,273.301 3.011 C 273.109 3.143,272.794 3.421,272.601 3.631 C 272.408 3.840,272.081 4.172,271.875 4.369 C 271.669 4.566,271.500 4.792,271.500 4.873 C 271.500 5.105,269.375 7.167,269.134 7.167 C 269.015 7.167,268.770 7.387,268.590 7.655 C 268.410 7.924,268.223 8.121,268.173 8.093 C 268.031 8.015,267.343 8.788,267.455 8.900 C 267.510 8.955,267.480 9.000,267.387 9.000 C 267.065 9.000,266.500 9.624,266.500 9.978 C 266.500 10.314,266.580 10.333,268.000 10.333 L 269.500 10.333 269.500 15.083 L 269.500 19.833 268.000 19.833 L 266.500 19.833 266.500 21.167 L 266.500 22.500 267.417 22.500 L 268.333 22.500 268.333 24.667 C 268.333 26.000,268.269 26.833,268.167 26.833 C 268.064 26.833,268.000 27.639,268.000 28.917 C 268.000 30.194,267.936 31.000,267.833 31.000 C 267.731 31.000,267.667 31.830,267.667 33.157 C 267.667 34.343,267.599 35.356,267.516 35.407 C 267.432 35.458,267.390 36.400,267.421 37.500 C 267.453 38.663,267.412 39.500,267.322 39.500 C 267.234 39.500,267.167 40.410,267.167 41.583 C 267.167 42.861,267.102 43.667,267.000 43.667 C 266.897 43.667,266.833 44.500,266.833 45.833 C 266.833 47.167,266.769 48.000,266.667 48.000 C 266.564 48.000,266.500 48.830,266.500 50.157 C 266.500 51.343,266.433 52.355,266.352 52.405 C 266.271 52.455,266.149 54.336,266.082 56.584 C 266.014 58.833,265.893 60.713,265.813 60.763 C 265.732 60.812,265.667 61.771,265.667 62.893 C 265.667 64.296,265.602 64.998,265.460 65.140 C 265.295 65.305,265.303 65.379,265.501 65.504 C 265.667 65.609,265.681 65.662,265.542 65.664 C 265.386 65.666,265.333 66.210,265.333 67.819 C 265.333 69.003,265.265 69.997,265.182 70.028 C 265.099 70.058,264.977 72.052,264.910 74.458 C 264.843 76.865,264.723 78.833,264.644 78.833 C 264.370 78.833,264.490 80.157,264.792 80.458 C 265.161 80.828,288.100 80.846,288.792 80.477 C 289.185 80.267,289.367 78.833,289.000 78.833 C 288.896 78.833,288.833 77.889,288.833 76.333 C 288.833 74.958,288.767 73.833,288.686 73.833 C 288.604 73.833,288.483 71.695,288.415 69.080 C 288.348 66.466,288.226 64.287,288.146 64.237 C 288.066 64.188,288.000 63.026,288.000 61.657 C 288.000 60.108,287.937 59.167,287.833 59.167 C 287.730 59.167,287.667 58.222,287.667 56.667 C 287.667 55.111,287.604 54.167,287.500 54.167 C 287.397 54.167,287.333 53.278,287.333 51.833 C 287.333 50.550,287.267 49.500,287.186 49.500 C 287.106 49.500,286.984 47.250,286.917 44.500 C 286.849 41.750,286.728 39.500,286.647 39.500 C 286.566 39.500,286.500 38.375,286.500 37.000 C 286.500 35.444,286.437 34.500,286.333 34.500 C 286.230 34.500,286.167 33.611,286.167 32.167 C 286.167 30.722,286.103 29.833,286.000 29.833 C 285.896 29.833,285.833 28.894,285.833 27.347 C 285.833 25.756,285.770 24.840,285.658 24.803 C 285.543 24.764,285.522 24.358,285.598 23.622 L 285.713 22.500 286.523 22.500 L 287.333 22.500 287.333 21.167 L 287.333 19.833 286.000 19.833 L 284.667 19.833 284.667 15.083 L 284.667 10.333 286.333 10.333 C 287.704 10.333,288.000 10.289,288.000 10.083 C 288.000 9.946,287.925 9.833,287.833 9.833 C 287.742 9.833,287.667 9.688,287.667 9.511 C 287.667 9.334,287.517 9.142,287.333 9.083 C 287.150 9.025,287.000 8.911,287.000 8.829 C 287.000 8.651,286.143 7.833,285.956 7.833 C 285.885 7.833,284.771 6.783,283.482 5.500 C 282.193 4.217,281.077 3.167,281.002 3.167 C 280.926 3.167,280.144 2.454,279.263 1.583 C 277.623 -0.038,277.243 -0.228,276.333 0.123 M281.833 14.750 L 281.833 19.167 277.083 19.167 L 272.333 19.167 272.333 14.750 L 272.333 10.333 277.083 10.333 L 281.833 10.333 281.833 14.750 M283.500 35.167 C 283.500 36.722,283.563 37.667,283.667 37.667 C 283.770 37.667,283.833 38.611,283.833 40.167 C 283.833 41.722,283.896 42.667,284.000 42.667 C 284.095 42.667,284.167 43.156,284.167 43.802 L 284.167 44.938 283.583 45.167 C 283.262 45.293,283.000 45.457,283.000 45.531 C 283.000 45.606,282.858 45.667,282.684 45.667 C 282.511 45.667,282.326 45.779,282.273 45.917 C 282.220 46.054,282.025 46.167,281.839 46.167 C 281.652 46.167,281.500 46.228,281.500 46.302 C 281.500 46.377,281.237 46.541,280.917 46.667 C 280.596 46.793,280.333 46.947,280.333 47.010 C 280.333 47.073,280.127 47.167,279.875 47.218 C 279.623 47.269,279.251 47.466,279.049 47.655 C 278.846 47.845,278.602 48.000,278.507 48.000 C 278.411 48.000,278.333 48.067,278.333 48.148 C 278.333 48.230,278.071 48.345,277.750 48.406 C 277.429 48.466,277.167 48.587,277.167 48.674 C 277.167 48.762,277.032 48.833,276.867 48.833 C 276.494 48.833,275.670 49.206,275.668 49.375 C 275.667 49.444,275.517 49.500,275.333 49.500 C 275.150 49.500,275.000 49.573,275.000 49.661 C 275.000 49.750,274.887 49.780,274.750 49.727 C 274.612 49.674,274.500 49.714,274.500 49.816 C 274.500 49.917,274.350 50.000,274.167 50.000 C 273.983 50.000,273.833 50.075,273.833 50.167 C 273.833 50.258,273.721 50.333,273.583 50.333 C 273.446 50.333,273.333 50.408,273.333 50.500 C 273.333 50.592,273.193 50.667,273.020 50.667 C 272.848 50.667,272.614 50.779,272.500 50.917 C 272.386 51.054,272.189 51.167,272.063 51.167 C 271.937 51.167,271.833 51.242,271.833 51.333 C 271.833 51.425,271.683 51.500,271.500 51.500 C 271.317 51.500,271.167 51.575,271.167 51.667 C 271.167 51.758,271.060 51.833,270.931 51.833 C 270.801 51.833,270.669 51.899,270.639 51.980 C 270.608 52.060,270.340 52.179,270.042 52.243 L 269.500 52.360 269.504 51.555 C 269.506 51.112,269.575 50.461,269.657 50.108 C 269.739 49.754,269.860 47.786,269.926 45.733 C 269.993 43.680,270.109 42.000,270.184 42.000 C 270.260 42.000,270.343 41.231,270.369 40.292 C 270.413 38.702,270.443 38.572,270.792 38.419 C 270.998 38.328,271.167 38.197,271.167 38.127 C 271.167 38.057,271.317 38.000,271.500 38.000 C 271.683 38.000,271.833 37.925,271.833 37.833 C 271.833 37.742,271.989 37.667,272.179 37.667 C 272.368 37.667,272.636 37.554,272.774 37.417 C 272.911 37.279,273.206 37.167,273.429 37.167 C 273.651 37.167,273.833 37.092,273.833 37.000 C 273.833 36.908,273.983 36.833,274.167 36.833 C 274.350 36.833,274.500 36.758,274.500 36.667 C 274.500 36.575,274.612 36.500,274.750 36.500 C 274.887 36.500,275.000 36.433,275.000 36.352 C 275.000 36.270,275.262 36.155,275.583 36.094 C 275.904 36.034,276.167 35.913,276.167 35.826 C 276.167 35.738,276.317 35.667,276.500 35.667 C 276.683 35.667,276.833 35.592,276.833 35.500 C 276.833 35.408,276.946 35.333,277.083 35.333 C 277.221 35.333,277.333 35.267,277.333 35.185 C 277.333 35.104,277.596 34.988,277.917 34.928 C 278.237 34.867,278.500 34.747,278.500 34.659 C 278.500 34.572,278.683 34.500,278.907 34.500 C 279.131 34.500,279.360 34.425,279.417 34.333 C 279.473 34.242,279.703 34.167,279.927 34.167 C 280.150 34.167,280.333 34.095,280.333 34.008 C 280.333 33.920,280.596 33.799,280.917 33.739 C 281.237 33.679,281.500 33.563,281.500 33.481 C 281.500 33.400,281.637 33.333,281.804 33.333 C 281.971 33.333,282.253 33.188,282.429 33.010 C 283.331 32.101,283.500 32.441,283.500 35.167 M45.417 44.000 C 45.360 44.092,44.943 44.167,44.490 44.167 C 44.037 44.167,43.667 44.242,43.667 44.333 C 43.667 44.425,43.456 44.500,43.199 44.500 C 42.941 44.500,42.585 44.610,42.407 44.745 C 42.229 44.879,41.952 44.992,41.792 44.995 C 41.631 44.998,41.500 45.075,41.500 45.167 C 41.500 45.258,41.387 45.333,41.250 45.333 C 41.112 45.333,41.000 45.408,41.000 45.500 C 41.000 45.592,40.891 45.667,40.757 45.667 C 40.461 45.667,37.500 48.552,37.500 48.840 C 37.500 48.952,37.365 49.166,37.200 49.314 C 36.822 49.653,36.333 50.689,36.333 51.150 C 36.333 51.343,36.258 51.500,36.167 51.500 C 36.058 51.500,36.000 54.389,36.000 59.833 C 36.000 65.278,36.058 68.167,36.167 68.167 C 36.258 68.167,36.333 68.389,36.333 68.661 C 36.333 69.362,36.817 70.696,37.187 71.017 C 37.359 71.167,37.500 71.374,37.500 71.478 C 37.500 71.582,37.579 71.667,37.677 71.667 C 37.774 71.667,37.815 71.728,37.769 71.803 C 37.722 71.878,37.831 72.045,38.009 72.173 C 38.187 72.302,38.333 72.469,38.333 72.544 C 38.333 72.673,38.679 73.077,39.542 73.958 C 39.744 74.165,39.988 74.333,40.085 74.333 C 40.181 74.333,40.368 74.483,40.500 74.667 C 40.632 74.850,40.874 75.000,41.037 75.000 C 41.200 75.000,41.333 75.072,41.333 75.159 C 41.333 75.247,41.596 75.367,41.917 75.428 C 42.237 75.488,42.500 75.604,42.500 75.685 C 42.500 75.767,42.683 75.833,42.907 75.833 C 43.131 75.833,43.360 75.908,43.417 76.000 C 43.480 76.102,44.780 76.167,46.760 76.167 C 48.809 76.167,50.000 76.105,50.000 76.000 C 50.000 75.908,50.221 75.833,50.490 75.833 C 50.760 75.833,51.027 75.758,51.083 75.667 C 51.140 75.575,51.294 75.500,51.425 75.500 C 51.765 75.500,53.000 74.946,53.000 74.794 C 53.000 74.724,53.095 74.667,53.210 74.667 C 53.326 74.667,53.622 74.479,53.869 74.250 C 54.117 74.021,54.362 73.833,54.415 73.833 C 54.543 73.833,55.667 72.706,55.667 72.577 C 55.667 72.522,55.760 72.372,55.875 72.244 C 56.370 71.692,56.500 71.504,56.500 71.340 C 56.500 71.245,56.575 71.167,56.667 71.167 C 56.758 71.167,56.833 71.017,56.833 70.833 C 56.833 70.650,56.899 70.500,56.979 70.500 C 57.059 70.500,57.172 70.200,57.231 69.833 C 57.289 69.467,57.411 69.167,57.502 69.167 C 57.593 69.167,57.667 68.904,57.667 68.583 C 57.667 68.262,57.742 68.000,57.833 68.000 C 57.927 68.000,58.000 67.528,58.000 66.917 C 58.000 66.306,58.073 65.833,58.167 65.833 C 58.272 65.833,58.333 64.611,58.333 62.500 L 58.333 59.167 52.417 59.167 L 46.500 59.167 46.500 60.917 L 46.500 62.667 50.333 62.667 L 54.167 62.667 54.167 64.583 C 54.167 65.637,54.101 66.500,54.022 66.500 C 53.942 66.500,53.825 66.950,53.763 67.500 C 53.701 68.050,53.579 68.500,53.492 68.500 C 53.405 68.500,53.333 68.632,53.333 68.793 C 53.333 68.955,53.183 69.180,53.000 69.295 C 52.817 69.409,52.667 69.600,52.667 69.718 C 52.667 69.959,50.998 71.740,50.745 71.768 C 50.356 71.812,49.833 72.051,49.833 72.186 C 49.833 72.267,49.421 72.333,48.917 72.333 C 48.413 72.333,48.000 72.408,48.000 72.500 C 48.000 72.592,47.559 72.667,47.010 72.667 C 46.465 72.667,45.973 72.592,45.917 72.500 C 45.860 72.408,45.518 72.333,45.157 72.333 C 44.796 72.333,44.500 72.258,44.500 72.167 C 44.500 72.075,44.369 71.998,44.208 71.995 C 44.048 71.992,43.771 71.879,43.593 71.745 C 43.415 71.610,43.134 71.500,42.968 71.500 C 42.802 71.500,42.667 71.436,42.667 71.359 C 42.667 71.281,42.517 71.045,42.333 70.833 C 42.150 70.622,42.000 70.503,42.000 70.570 C 42.000 70.636,41.887 70.578,41.750 70.440 C 41.612 70.303,41.500 70.082,41.500 69.949 C 41.500 69.816,41.388 69.614,41.250 69.500 C 41.112 69.386,41.000 69.189,41.000 69.063 C 41.000 68.937,40.925 68.833,40.833 68.833 C 40.742 68.833,40.667 68.652,40.667 68.431 C 40.667 68.209,40.580 67.999,40.474 67.964 C 40.346 67.921,40.259 67.152,40.213 65.658 C 40.176 64.425,40.071 63.265,39.981 63.079 C 39.689 62.477,40.121 52.575,40.450 52.357 C 40.538 52.298,40.716 52.006,40.846 51.708 C 40.975 51.410,41.138 51.167,41.207 51.167 C 41.277 51.167,41.333 51.058,41.333 50.924 C 41.333 50.791,41.521 50.494,41.750 50.265 C 41.979 50.036,42.167 49.802,42.167 49.746 C 42.167 49.689,42.260 49.545,42.375 49.425 C 42.490 49.305,42.692 49.051,42.825 48.859 C 42.982 48.632,43.330 48.472,43.825 48.401 C 44.242 48.341,44.669 48.223,44.774 48.140 C 45.023 47.942,48.976 47.941,49.225 48.139 C 49.330 48.223,49.758 48.341,50.175 48.401 C 50.645 48.469,51.024 48.635,51.170 48.839 C 51.301 49.019,51.469 49.167,51.544 49.167 C 51.688 49.167,52.048 49.438,52.383 49.800 C 53.316 50.807,53.764 51.167,54.086 51.167 C 54.329 51.167,56.833 48.810,56.833 48.582 C 56.833 48.414,56.023 47.667,55.841 47.667 C 55.745 47.667,55.667 47.554,55.667 47.417 C 55.667 47.278,55.519 47.167,55.333 47.167 C 55.150 47.167,55.000 47.103,55.000 47.026 C 55.000 46.760,54.378 46.167,54.100 46.167 C 53.948 46.167,53.780 46.054,53.727 45.917 C 53.674 45.779,53.495 45.667,53.329 45.667 C 53.164 45.667,53.003 45.608,52.972 45.536 C 52.880 45.319,51.077 44.500,50.692 44.500 C 50.495 44.500,50.333 44.425,50.333 44.333 C 50.333 44.242,49.963 44.167,49.510 44.167 C 49.057 44.167,48.640 44.092,48.583 44.000 C 48.527 43.908,47.814 43.833,47.000 43.833 C 46.186 43.833,45.473 43.908,45.417 44.000 M158.167 44.000 C 158.167 44.092,157.829 44.167,157.417 44.167 C 157.004 44.167,156.667 44.242,156.667 44.333 C 156.667 44.425,156.419 44.500,156.115 44.500 C 155.812 44.500,155.418 44.610,155.240 44.745 C 155.062 44.879,154.785 44.992,154.625 44.995 C 154.465 44.998,154.333 45.075,154.333 45.167 C 154.333 45.258,154.221 45.333,154.085 45.333 C 153.948 45.333,153.742 45.483,153.628 45.667 C 153.513 45.850,153.317 46.000,153.190 46.000 C 153.064 46.000,152.674 46.281,152.322 46.625 C 151.971 46.969,151.607 47.325,151.513 47.417 C 150.909 48.007,150.500 48.509,150.500 48.659 C 150.500 48.755,150.425 48.833,150.333 48.833 C 150.242 48.833,150.167 48.974,150.167 49.146 C 150.167 49.318,150.054 49.553,149.917 49.667 C 149.779 49.781,149.667 50.052,149.667 50.270 C 149.667 50.488,149.592 50.667,149.500 50.667 C 149.408 50.667,149.333 50.773,149.333 50.903 C 149.333 51.033,149.240 51.170,149.125 51.208 C 148.962 51.263,148.917 53.170,148.917 60.000 C 148.917 66.830,148.962 68.737,149.125 68.792 C 149.240 68.830,149.333 69.042,149.333 69.264 C 149.333 69.485,149.408 69.667,149.500 69.667 C 149.592 69.667,149.667 69.817,149.667 70.000 C 149.667 70.183,149.742 70.333,149.833 70.333 C 149.925 70.333,150.000 70.416,150.000 70.516 C 150.000 70.849,150.567 71.910,150.954 72.299 C 151.162 72.510,151.333 72.746,151.333 72.824 C 151.333 73.010,152.490 74.167,152.676 74.167 C 152.754 74.167,152.990 74.338,153.201 74.546 C 153.411 74.755,153.883 75.059,154.250 75.221 C 154.617 75.383,155.047 75.588,155.206 75.675 C 155.365 75.762,155.680 75.833,155.905 75.833 C 156.130 75.833,156.360 75.908,156.417 76.000 C 156.480 76.102,157.776 76.167,159.750 76.167 C 161.724 76.167,163.020 76.102,163.083 76.000 C 163.140 75.908,163.369 75.833,163.593 75.833 C 163.817 75.833,164.000 75.768,164.000 75.688 C 164.000 75.608,164.284 75.497,164.631 75.442 C 164.978 75.386,165.425 75.189,165.624 75.004 C 165.823 74.818,166.064 74.667,166.160 74.667 C 166.255 74.667,166.333 74.597,166.333 74.511 C 166.333 74.426,166.476 74.310,166.651 74.255 C 167.112 74.109,169.000 72.256,169.000 71.949 C 169.000 71.806,169.153 71.641,169.340 71.581 C 169.542 71.517,169.720 71.275,169.778 70.987 C 169.831 70.719,169.941 70.500,170.021 70.500 C 170.101 70.500,170.167 70.387,170.167 70.250 C 170.167 70.112,170.242 70.000,170.333 70.000 C 170.425 70.000,170.500 69.828,170.500 69.617 C 170.500 69.406,170.594 69.140,170.708 69.025 C 170.870 68.864,170.917 66.898,170.917 60.333 C 170.917 53.769,170.870 51.803,170.708 51.642 C 170.594 51.527,170.500 51.261,170.500 51.050 C 170.500 50.839,170.425 50.667,170.333 50.667 C 170.242 50.667,170.167 50.517,170.167 50.333 C 170.167 50.150,170.100 50.000,170.018 50.000 C 169.936 50.000,169.822 49.813,169.765 49.583 C 169.707 49.354,169.587 49.167,169.497 49.167 C 169.407 49.167,169.333 49.022,169.333 48.845 C 169.333 48.667,169.187 48.476,169.009 48.419 C 168.830 48.363,168.637 48.170,168.581 47.991 C 168.524 47.813,168.408 47.667,168.322 47.667 C 168.237 47.667,168.167 47.589,168.167 47.494 C 168.167 47.235,167.100 46.221,166.691 46.091 C 166.494 46.029,166.333 45.908,166.333 45.822 C 166.333 45.737,166.248 45.667,166.145 45.667 C 166.041 45.667,165.834 45.534,165.686 45.373 C 165.403 45.065,163.958 44.498,163.458 44.499 C 163.298 44.500,163.167 44.425,163.167 44.333 C 163.167 44.242,162.754 44.167,162.250 44.167 C 161.746 44.167,161.333 44.092,161.333 44.000 C 161.333 43.901,160.694 43.833,159.750 43.833 C 158.806 43.833,158.167 43.901,158.167 44.000 M214.833 44.000 C 214.833 44.092,214.421 44.167,213.917 44.167 C 213.412 44.167,213.000 44.242,213.000 44.333 C 213.000 44.425,212.756 44.502,212.458 44.505 C 212.160 44.508,211.771 44.621,211.593 44.755 C 211.415 44.890,211.134 45.000,210.968 45.000 C 210.802 45.000,210.667 45.075,210.667 45.167 C 210.667 45.258,210.571 45.333,210.453 45.333 C 210.336 45.333,210.132 45.483,210.000 45.667 C 209.868 45.850,209.669 46.000,209.558 46.000 C 209.201 46.000,207.500 47.777,207.500 48.149 C 207.500 48.342,207.434 48.500,207.353 48.500 C 207.195 48.500,206.667 49.970,206.667 50.406 C 206.667 50.550,206.592 50.667,206.500 50.667 C 206.408 50.667,206.333 51.100,206.333 51.633 C 206.333 52.178,206.242 52.696,206.125 52.821 C 205.958 52.998,205.958 53.057,206.125 53.118 C 206.266 53.170,206.333 53.594,206.333 54.431 C 206.333 55.144,206.404 55.667,206.500 55.667 C 206.592 55.667,206.667 55.850,206.667 56.073 C 206.667 56.297,206.735 56.522,206.818 56.574 C 206.901 56.625,206.930 56.817,206.882 57.000 C 206.833 57.186,206.877 57.333,206.981 57.333 C 207.083 57.333,207.167 57.478,207.167 57.655 C 207.167 57.833,207.317 58.025,207.500 58.083 C 207.683 58.142,207.833 58.307,207.833 58.450 C 207.833 58.758,208.517 59.430,208.979 59.577 C 209.157 59.633,209.340 59.778,209.387 59.899 C 209.504 60.205,210.760 60.833,211.255 60.833 C 211.481 60.833,211.667 60.908,211.667 61.000 C 211.667 61.092,211.780 61.167,211.919 61.167 C 212.058 61.167,212.301 61.232,212.461 61.313 C 213.162 61.667,214.059 61.840,215.719 61.942 C 216.699 62.002,217.500 62.114,217.500 62.192 C 217.500 62.270,218.025 62.333,218.667 62.333 C 219.333 62.333,219.833 62.405,219.833 62.500 C 219.833 62.592,220.021 62.667,220.250 62.667 C 220.479 62.667,220.667 62.742,220.667 62.833 C 220.667 62.925,220.811 63.000,220.988 63.000 C 221.165 63.000,221.422 63.112,221.560 63.250 C 221.697 63.388,221.890 63.500,221.988 63.500 C 222.086 63.500,222.167 63.608,222.167 63.741 C 222.167 63.873,222.321 64.089,222.510 64.222 C 222.761 64.398,222.880 64.714,222.951 65.403 C 223.004 65.920,223.112 66.383,223.190 66.431 C 223.378 66.547,223.376 68.000,223.188 68.000 C 223.109 68.000,223.003 68.354,222.955 68.786 C 222.906 69.219,222.784 69.600,222.683 69.633 C 222.582 69.667,222.500 69.792,222.500 69.910 C 222.500 70.214,221.219 71.500,220.917 71.500 C 220.779 71.500,220.667 71.573,220.667 71.661 C 220.667 71.750,220.554 71.780,220.417 71.727 C 220.279 71.674,220.167 71.714,220.167 71.816 C 220.167 71.917,219.984 72.000,219.760 72.000 C 219.536 72.000,219.307 72.075,219.250 72.167 C 219.193 72.258,218.851 72.333,218.490 72.333 C 218.129 72.333,217.833 72.408,217.833 72.500 C 217.833 72.597,217.278 72.667,216.500 72.667 C 215.722 72.667,215.167 72.597,215.167 72.500 C 215.167 72.408,214.754 72.333,214.250 72.333 C 213.746 72.333,213.333 72.258,213.333 72.167 C 213.333 72.075,213.071 72.000,212.750 72.000 C 212.429 72.000,212.167 71.928,212.167 71.841 C 212.167 71.753,211.904 71.633,211.583 71.572 C 211.262 71.512,211.000 71.396,211.000 71.315 C 211.000 71.233,210.899 71.167,210.776 71.167 C 210.653 71.167,210.418 71.018,210.254 70.837 C 210.090 70.656,209.884 70.552,209.798 70.605 C 209.711 70.659,209.529 70.545,209.394 70.351 C 209.259 70.158,209.056 70.000,208.944 70.000 C 208.832 70.000,208.632 69.850,208.500 69.667 C 208.157 69.191,207.646 69.257,207.190 69.835 C 206.973 70.109,206.710 70.333,206.605 70.333 C 205.806 70.333,205.152 72.025,205.754 72.535 C 205.893 72.653,206.219 72.938,206.478 73.167 C 206.737 73.396,207.156 73.733,207.409 73.917 C 207.663 74.100,207.969 74.344,208.090 74.458 C 208.211 74.573,208.390 74.667,208.488 74.667 C 208.586 74.667,208.667 74.742,208.667 74.833 C 208.667 74.925,208.817 75.000,209.000 75.000 C 209.183 75.000,209.333 75.074,209.333 75.165 C 209.333 75.255,209.633 75.377,210.000 75.436 C 210.367 75.495,210.667 75.608,210.667 75.688 C 210.667 75.768,210.925 75.833,211.240 75.833 C 211.556 75.833,211.860 75.908,211.917 76.000 C 211.981 76.104,213.526 76.167,216.000 76.167 C 218.474 76.167,220.019 76.104,220.083 76.000 C 220.140 75.908,220.444 75.833,220.760 75.833 C 221.075 75.833,221.333 75.758,221.333 75.667 C 221.333 75.575,221.491 75.500,221.683 75.500 C 222.069 75.500,223.000 75.003,223.000 74.797 C 223.000 74.725,223.150 74.667,223.333 74.667 C 223.517 74.667,223.667 74.592,223.667 74.500 C 223.667 74.408,223.777 74.333,223.911 74.333 C 224.175 74.333,225.333 73.252,225.333 73.006 C 225.333 72.923,225.483 72.808,225.667 72.750 C 225.850 72.692,226.000 72.499,226.000 72.322 C 226.000 72.145,226.074 72.000,226.163 72.000 C 226.253 72.000,226.374 71.813,226.432 71.583 C 226.489 71.354,226.603 71.167,226.685 71.167 C 226.766 71.167,226.833 70.979,226.833 70.750 C 226.833 70.521,226.908 70.333,227.000 70.333 C 227.092 70.333,227.167 70.108,227.167 69.833 C 227.167 69.558,227.242 69.333,227.333 69.333 C 227.436 69.333,227.500 68.448,227.500 67.010 C 227.500 65.641,227.432 64.644,227.333 64.583 C 227.242 64.527,227.167 64.260,227.167 63.990 C 227.167 63.721,227.092 63.500,227.000 63.500 C 226.908 63.500,226.833 63.387,226.833 63.250 C 226.833 63.112,226.758 63.000,226.667 63.000 C 226.575 63.000,226.500 62.853,226.500 62.673 C 226.500 62.494,226.384 62.250,226.242 62.132 C 225.981 61.914,225.417 61.363,225.050 60.966 C 224.734 60.626,224.358 60.333,224.235 60.333 C 224.173 60.333,224.001 60.193,223.853 60.022 C 223.704 59.851,223.339 59.658,223.042 59.592 C 222.744 59.527,222.500 59.404,222.500 59.320 C 222.500 59.236,222.317 59.167,222.093 59.167 C 221.869 59.167,221.640 59.092,221.583 59.000 C 221.527 58.908,221.222 58.833,220.907 58.833 C 220.591 58.833,220.333 58.766,220.333 58.683 C 220.333 58.497,219.061 58.305,217.792 58.300 C 217.265 58.298,216.833 58.230,216.833 58.148 C 216.833 58.067,216.496 58.000,216.083 58.000 C 215.671 58.000,215.333 57.925,215.333 57.833 C 215.333 57.742,215.071 57.667,214.750 57.667 C 214.429 57.667,214.167 57.592,214.167 57.500 C 214.167 57.408,213.979 57.333,213.750 57.333 C 213.521 57.333,213.333 57.250,213.333 57.149 C 213.333 57.047,213.221 57.008,213.083 57.060 C 212.946 57.113,212.833 57.084,212.833 56.995 C 212.833 56.906,212.683 56.833,212.500 56.833 C 212.317 56.833,212.167 56.758,212.167 56.667 C 212.167 56.575,212.092 56.500,212.001 56.500 C 211.850 56.500,211.292 56.075,210.728 55.530 C 210.603 55.409,210.500 55.127,210.500 54.905 C 210.500 54.682,210.425 54.500,210.333 54.500 C 210.128 54.500,210.107 51.890,210.311 51.764 C 210.391 51.714,210.504 51.372,210.563 51.004 C 210.622 50.635,210.745 50.333,210.835 50.333 C 210.926 50.333,211.000 50.188,211.000 50.011 C 211.000 49.834,211.150 49.642,211.333 49.583 C 211.517 49.525,211.667 49.419,211.667 49.348 C 211.667 49.021,212.322 48.517,212.884 48.412 C 213.225 48.348,213.545 48.229,213.595 48.148 C 213.645 48.066,214.019 48.000,214.427 48.000 C 214.834 48.000,215.167 47.925,215.167 47.833 C 215.167 47.738,215.663 47.667,216.323 47.667 C 216.960 47.667,217.527 47.742,217.583 47.833 C 217.640 47.925,218.020 48.000,218.429 48.000 C 218.837 48.000,219.301 48.071,219.461 48.158 C 219.620 48.245,220.106 48.362,220.542 48.418 C 220.977 48.474,221.333 48.591,221.333 48.677 C 221.333 48.763,221.411 48.833,221.506 48.833 C 221.681 48.833,222.220 49.278,222.869 49.958 C 223.318 50.429,223.940 50.450,224.083 50.000 C 224.142 49.817,224.256 49.667,224.337 49.667 C 224.529 49.667,225.333 48.863,225.333 48.670 C 225.333 48.589,225.483 48.475,225.667 48.417 C 226.124 48.271,226.131 47.397,225.675 47.253 C 225.497 47.196,225.304 47.003,225.247 46.825 C 225.191 46.646,224.999 46.500,224.822 46.500 C 224.645 46.500,224.500 46.430,224.500 46.345 C 224.500 46.259,224.331 46.136,224.125 46.071 C 223.919 46.006,223.637 45.832,223.498 45.684 C 223.152 45.316,222.564 45.001,222.211 44.995 C 222.049 44.992,221.771 44.879,221.593 44.745 C 221.415 44.610,221.021 44.500,220.718 44.500 C 220.415 44.500,220.167 44.425,220.167 44.333 C 220.167 44.242,219.754 44.167,219.250 44.167 C 218.746 44.167,218.333 44.092,218.333 44.000 C 218.333 43.899,217.639 43.833,216.583 43.833 C 215.528 43.833,214.833 43.899,214.833 44.000 M0.000 60.167 L 0.000 76.167 9.679 76.167 C 20.986 76.167,19.867 76.401,19.798 74.047 L 19.750 72.417 11.708 72.373 L 3.667 72.330 3.667 58.248 L 3.667 44.167 1.833 44.167 L 0.000 44.167 0.000 60.167 M24.541 60.125 L 24.583 76.083 26.625 76.130 L 28.667 76.177 28.667 60.172 L 28.667 44.167 26.582 44.167 L 24.498 44.167 24.541 60.125 M65.111 44.278 C 64.894 44.495,64.982 75.749,65.200 75.967 C 65.332 76.099,66.041 76.167,67.283 76.167 L 69.167 76.167 69.167 69.083 L 69.167 62.000 76.250 62.000 L 83.333 62.000 83.333 69.083 L 83.333 76.167 85.167 76.167 L 87.000 76.167 87.000 60.167 L 87.000 44.167 85.167 44.167 L 83.333 44.167 83.333 51.125 L 83.333 58.083 76.250 58.038 L 69.167 57.993 69.167 51.080 L 69.167 44.167 67.194 44.167 C 66.110 44.167,65.172 44.217,65.111 44.278 M92.333 46.083 L 92.333 48.000 96.749 48.000 L 101.165 48.000 101.207 62.042 L 101.250 76.083 103.143 76.131 C 104.396 76.162,105.114 76.113,105.268 75.985 C 105.463 75.823,105.500 73.571,105.500 61.896 L 105.500 48.000 109.833 48.000 L 114.167 48.000 114.167 46.083 L 114.167 44.167 103.250 44.167 L 92.333 44.167 92.333 46.083 M119.374 60.125 L 119.417 76.083 121.458 76.130 L 123.500 76.177 123.500 69.088 L 123.500 62.000 130.417 62.000 L 137.333 62.000 137.333 68.982 C 137.333 75.195,137.362 75.975,137.597 76.066 C 138.162 76.282,141.183 76.174,141.429 75.929 C 141.632 75.726,141.667 73.367,141.667 59.929 L 141.667 44.167 139.500 44.167 L 137.333 44.167 137.333 51.083 L 137.333 58.000 130.417 58.000 L 123.500 58.000 123.500 51.083 L 123.500 44.167 121.416 44.167 L 119.332 44.167 119.374 60.125 M177.833 55.990 C 177.833 63.693,177.891 67.850,178.000 67.917 C 178.092 67.973,178.167 68.263,178.167 68.561 C 178.167 68.859,178.277 69.249,178.411 69.426 C 178.546 69.604,178.658 69.919,178.661 70.125 C 178.664 70.331,178.742 70.500,178.833 70.500 C 178.925 70.500,179.000 70.683,179.000 70.907 C 179.000 71.131,179.138 71.412,179.306 71.532 C 179.475 71.652,179.664 71.956,179.726 72.208 C 179.789 72.460,179.910 72.667,179.996 72.667 C 180.081 72.667,180.344 72.873,180.580 73.125 C 181.553 74.167,181.758 74.333,182.066 74.333 C 182.244 74.333,182.342 74.380,182.286 74.437 C 182.138 74.584,182.594 75.000,182.905 75.000 C 183.049 75.000,183.167 75.072,183.167 75.159 C 183.167 75.247,183.429 75.367,183.750 75.428 C 184.071 75.488,184.333 75.604,184.333 75.685 C 184.333 75.767,184.596 75.833,184.917 75.833 C 185.237 75.833,185.500 75.908,185.500 76.000 C 185.500 76.226,192.277 76.226,192.417 76.000 C 192.473 75.908,192.703 75.833,192.927 75.833 C 193.150 75.833,193.333 75.767,193.333 75.685 C 193.333 75.604,193.596 75.488,193.917 75.428 C 194.237 75.367,194.500 75.247,194.500 75.159 C 194.500 75.072,194.650 75.000,194.833 75.000 C 195.017 75.000,195.167 74.925,195.167 74.833 C 195.167 74.742,195.245 74.667,195.340 74.667 C 195.504 74.667,195.692 74.536,196.244 74.042 C 196.372 73.927,196.522 73.833,196.577 73.833 C 196.708 73.833,197.833 72.708,197.833 72.577 C 197.833 72.522,197.927 72.372,198.042 72.244 C 198.536 71.692,198.667 71.504,198.667 71.340 C 198.667 71.245,198.742 71.167,198.833 71.167 C 198.925 71.167,199.000 71.023,199.000 70.847 C 199.000 70.672,199.080 70.501,199.177 70.469 C 199.275 70.436,199.397 70.092,199.449 69.705 C 199.501 69.317,199.609 69.000,199.689 69.000 C 199.768 69.000,199.833 68.517,199.833 67.927 C 199.833 67.336,199.908 66.807,200.000 66.750 C 200.108 66.683,200.167 62.720,200.167 55.407 L 200.167 44.167 198.083 44.167 L 196.000 44.167 196.000 55.500 C 196.000 63.272,195.945 66.833,195.826 66.833 C 195.717 66.833,195.693 67.052,195.761 67.417 C 195.833 67.799,195.807 68.000,195.685 68.000 C 195.583 68.000,195.500 68.112,195.500 68.250 C 195.500 68.387,195.425 68.500,195.333 68.500 C 195.242 68.500,195.167 68.650,195.167 68.833 C 195.167 69.017,195.092 69.167,195.000 69.167 C 194.908 69.167,194.833 69.279,194.833 69.417 C 194.833 69.554,194.746 69.667,194.639 69.667 C 194.532 69.667,194.493 69.715,194.551 69.773 C 194.657 69.879,193.689 70.826,193.470 70.831 C 193.407 70.832,193.308 70.983,193.250 71.167 C 193.192 71.350,193.014 71.500,192.854 71.500 C 192.694 71.500,192.418 71.610,192.240 71.745 C 192.062 71.879,191.785 71.992,191.625 71.995 C 191.465 71.998,191.333 72.075,191.333 72.167 C 191.333 72.258,191.038 72.333,190.677 72.333 C 190.315 72.333,189.973 72.408,189.917 72.500 C 189.860 72.592,189.410 72.667,188.917 72.667 C 188.423 72.667,187.973 72.592,187.917 72.500 C 187.860 72.408,187.589 72.333,187.315 72.333 C 187.041 72.333,186.511 72.185,186.136 72.004 C 185.761 71.823,185.404 71.707,185.341 71.745 C 185.279 71.784,185.122 71.669,184.994 71.491 C 184.865 71.313,184.691 71.167,184.608 71.167 C 184.524 71.167,184.316 71.005,184.145 70.808 C 183.973 70.610,183.833 70.509,183.833 70.583 C 183.833 70.657,183.683 70.545,183.500 70.333 C 183.317 70.122,183.167 69.849,183.167 69.726 C 183.167 69.603,183.017 69.409,182.833 69.295 C 182.635 69.171,182.500 68.906,182.500 68.640 C 182.500 68.395,182.406 68.163,182.292 68.125 C 182.128 68.071,182.075 65.564,182.043 56.486 C 182.020 50.123,181.962 44.748,181.914 44.542 C 181.830 44.179,181.764 44.167,179.830 44.167 L 177.833 44.167 177.833 55.990 M233.667 60.168 L 233.667 76.169 243.625 76.126 L 253.583 76.083 253.630 74.208 L 253.678 72.333 245.672 72.333 L 237.667 72.333 237.667 67.167 L 237.667 62.000 244.417 62.000 L 251.167 62.000 251.167 60.000 L 251.167 58.000 244.417 58.000 L 237.667 58.000 237.667 53.000 L 237.667 48.000 245.667 48.000 L 253.667 48.000 253.667 46.083 L 253.667 44.167 243.667 44.167 L 233.667 44.167 233.667 60.168 M386.667 44.333 C 386.667 44.425,386.460 44.500,386.208 44.499 C 385.698 44.498,384.114 45.013,384.028 45.208 C 383.997 45.277,383.828 45.333,383.653 45.333 C 383.477 45.333,383.333 45.408,383.333 45.500 C 383.333 45.592,383.221 45.667,383.083 45.667 C 382.946 45.667,382.833 45.737,382.833 45.822 C 382.833 45.908,382.687 46.024,382.509 46.081 C 382.330 46.137,382.137 46.330,382.081 46.509 C 382.024 46.687,381.833 46.833,381.655 46.833 C 381.478 46.833,381.333 46.911,381.333 47.007 C 381.333 47.189,381.167 47.415,380.542 48.084 C 380.335 48.304,380.167 48.563,380.167 48.659 C 380.167 48.755,380.096 48.833,380.010 48.833 C 379.924 48.833,379.803 49.171,379.741 49.583 C 379.679 49.996,379.562 50.333,379.481 50.333 C 379.400 50.333,379.333 50.596,379.333 50.917 C 379.333 51.237,379.258 51.500,379.167 51.500 C 379.066 51.500,379.000 52.194,379.000 53.250 C 379.000 54.306,379.066 55.000,379.167 55.000 C 379.258 55.000,379.333 55.337,379.333 55.750 C 379.333 56.163,379.405 56.500,379.492 56.500 C 379.580 56.500,379.701 56.762,379.761 57.083 C 379.821 57.404,379.937 57.667,380.019 57.667 C 380.100 57.667,380.167 57.745,380.167 57.841 C 380.167 57.937,380.335 58.196,380.542 58.416 C 380.748 58.637,381.000 58.915,381.101 59.034 C 381.438 59.429,382.167 60.000,382.335 60.000 C 382.426 60.000,382.500 60.075,382.500 60.167 C 382.500 60.258,382.650 60.333,382.833 60.333 C 383.017 60.333,383.167 60.402,383.167 60.487 C 383.167 60.571,383.410 60.693,383.708 60.758 C 384.006 60.822,384.287 60.922,384.333 60.979 C 384.522 61.215,385.187 61.500,385.548 61.500 C 385.760 61.500,386.011 61.577,386.105 61.672 C 386.200 61.766,387.040 61.890,387.972 61.947 C 388.904 62.004,389.667 62.114,389.667 62.192 C 389.667 62.270,390.229 62.333,390.917 62.333 C 391.639 62.333,392.167 62.404,392.167 62.500 C 392.167 62.592,392.366 62.667,392.611 62.667 C 393.114 62.667,394.333 63.161,394.333 63.365 C 394.333 63.439,394.412 63.500,394.508 63.500 C 394.603 63.500,394.869 63.688,395.098 63.917 C 395.328 64.146,395.584 64.333,395.669 64.333 C 395.754 64.333,395.783 64.438,395.733 64.566 C 395.684 64.695,395.724 64.849,395.822 64.910 C 395.920 64.970,396.000 65.203,396.000 65.427 C 396.000 65.650,396.075 65.833,396.167 65.833 C 396.264 65.833,396.333 66.389,396.333 67.167 C 396.333 67.944,396.264 68.500,396.167 68.500 C 396.075 68.500,396.000 68.683,396.000 68.907 C 396.000 69.131,395.920 69.363,395.822 69.424 C 395.724 69.484,395.671 69.620,395.704 69.725 C 395.766 69.920,394.019 71.735,393.738 71.768 C 393.351 71.814,392.833 72.053,392.833 72.186 C 392.833 72.267,392.571 72.333,392.250 72.333 C 391.929 72.333,391.667 72.408,391.667 72.500 C 391.667 72.603,390.781 72.667,389.343 72.667 C 387.974 72.667,386.977 72.598,386.917 72.500 C 386.860 72.408,386.598 72.333,386.333 72.333 C 386.069 72.333,385.807 72.258,385.750 72.167 C 385.693 72.075,385.464 72.000,385.240 72.000 C 385.016 72.000,384.833 71.917,384.833 71.816 C 384.833 71.714,384.721 71.674,384.583 71.727 C 384.446 71.780,384.333 71.750,384.333 71.661 C 384.333 71.573,384.200 71.500,384.037 71.500 C 383.874 71.500,383.632 71.350,383.500 71.167 C 383.368 70.983,383.164 70.833,383.047 70.833 C 382.929 70.833,382.833 70.754,382.833 70.657 C 382.833 70.560,382.772 70.518,382.697 70.565 C 382.622 70.611,382.455 70.503,382.327 70.324 C 382.198 70.146,382.014 70.000,381.917 70.000 C 381.820 70.000,381.632 69.850,381.500 69.667 C 381.087 69.094,379.667 69.775,379.667 70.545 C 379.667 70.643,379.621 70.677,379.566 70.621 C 379.444 70.499,378.784 71.137,378.518 71.634 C 378.328 71.988,378.557 72.667,378.866 72.667 C 378.931 72.667,379.178 72.873,379.413 73.125 C 380.324 74.100,380.582 74.333,380.751 74.333 C 380.848 74.333,381.035 74.483,381.167 74.667 C 381.299 74.850,381.540 75.000,381.703 75.000 C 381.867 75.000,382.000 75.074,382.000 75.165 C 382.000 75.255,382.302 75.378,382.670 75.437 C 383.039 75.496,383.381 75.609,383.430 75.689 C 383.479 75.768,383.698 75.833,383.917 75.833 C 384.135 75.833,384.360 75.908,384.417 76.000 C 384.473 76.092,385.111 76.167,385.833 76.167 C 386.556 76.167,387.193 76.242,387.250 76.333 C 387.309 76.428,388.141 76.500,389.177 76.500 C 390.281 76.500,391.000 76.434,391.000 76.333 C 391.000 76.236,391.556 76.167,392.333 76.167 C 393.111 76.167,393.667 76.097,393.667 76.000 C 393.667 75.908,393.850 75.833,394.073 75.833 C 394.297 75.833,394.527 75.758,394.583 75.667 C 394.640 75.575,394.830 75.500,395.005 75.500 C 395.397 75.500,396.625 74.874,396.793 74.588 C 396.861 74.473,397.142 74.263,397.417 74.122 C 397.877 73.886,398.667 73.119,398.667 72.908 C 398.667 72.859,398.854 72.617,399.083 72.369 C 399.313 72.122,399.500 71.757,399.500 71.557 C 399.500 71.358,399.594 71.163,399.708 71.125 C 399.867 71.072,399.917 70.113,399.917 67.083 C 399.917 64.054,399.867 63.095,399.708 63.042 C 399.594 63.003,399.500 62.856,399.500 62.713 C 399.500 62.378,397.829 60.676,397.495 60.670 C 397.355 60.668,397.132 60.517,397.000 60.333 C 396.868 60.150,396.664 60.000,396.547 60.000 C 396.429 60.000,396.333 59.933,396.333 59.852 C 396.333 59.770,396.071 59.655,395.750 59.594 C 395.429 59.534,395.167 59.413,395.167 59.326 C 395.167 59.238,394.979 59.167,394.750 59.167 C 394.521 59.167,394.333 59.092,394.333 59.000 C 394.333 58.908,393.996 58.833,393.583 58.833 C 393.171 58.833,392.833 58.765,392.833 58.681 C 392.833 58.536,391.544 58.355,390.042 58.290 C 389.652 58.273,389.333 58.201,389.333 58.129 C 389.333 58.058,388.996 58.000,388.583 58.000 C 388.171 58.000,387.833 57.925,387.833 57.833 C 387.833 57.742,387.650 57.667,387.427 57.667 C 387.203 57.667,386.973 57.592,386.917 57.500 C 386.860 57.408,386.631 57.333,386.407 57.333 C 386.183 57.333,386.000 57.250,386.000 57.149 C 386.000 57.047,385.887 57.008,385.750 57.060 C 385.613 57.113,385.500 57.084,385.500 56.995 C 385.500 56.906,385.385 56.833,385.243 56.833 C 384.913 56.833,383.667 55.603,383.667 55.277 C 383.667 55.140,383.579 54.999,383.472 54.963 C 383.207 54.875,383.214 51.290,383.479 51.201 C 383.582 51.167,383.667 51.033,383.667 50.903 C 383.667 50.773,383.742 50.667,383.833 50.667 C 383.925 50.667,384.000 50.544,384.000 50.394 C 384.000 50.244,384.188 49.948,384.417 49.735 C 384.646 49.523,384.833 49.233,384.833 49.091 C 384.833 48.944,384.977 48.833,385.167 48.833 C 385.350 48.833,385.500 48.762,385.500 48.674 C 385.500 48.587,385.781 48.469,386.125 48.412 C 386.469 48.356,386.903 48.235,387.091 48.145 C 387.833 47.786,394.000 48.268,394.000 48.685 C 394.000 48.767,394.085 48.833,394.189 48.833 C 394.293 48.833,394.499 48.971,394.647 49.140 C 394.795 49.309,395.132 49.500,395.395 49.565 C 395.658 49.630,395.830 49.726,395.778 49.778 C 395.598 49.958,396.144 50.333,396.585 50.333 C 397.528 50.333,399.466 47.960,398.922 47.470 C 398.386 46.987,398.175 46.833,398.044 46.833 C 397.969 46.833,397.799 46.683,397.667 46.500 C 397.535 46.317,397.291 46.167,397.125 46.167 C 396.959 46.167,396.780 46.054,396.727 45.917 C 396.674 45.779,396.489 45.667,396.316 45.667 C 396.142 45.667,396.000 45.592,396.000 45.500 C 396.000 45.408,395.887 45.333,395.750 45.333 C 395.613 45.333,395.500 45.274,395.500 45.202 C 395.500 45.040,393.524 44.500,392.931 44.500 C 392.694 44.500,392.500 44.425,392.500 44.333 C 392.500 44.229,391.417 44.167,389.583 44.167 C 387.750 44.167,386.667 44.229,386.667 44.333 M300.333 60.335 L 300.333 76.169 310.292 76.126 L 320.250 76.083 320.298 74.453 C 320.366 72.115,321.213 72.333,312.095 72.333 L 304.333 72.333 304.333 58.417 L 304.333 44.500 302.333 44.500 L 300.333 44.500 300.333 60.335 M332.667 44.750 C 332.667 44.887,332.592 45.000,332.500 45.000 C 332.408 45.000,332.333 45.150,332.333 45.333 C 332.333 45.517,332.258 45.667,332.167 45.667 C 332.075 45.667,332.000 45.854,332.000 46.083 C 332.000 46.313,331.934 46.500,331.852 46.500 C 331.771 46.500,331.654 46.837,331.592 47.250 C 331.530 47.663,331.409 48.000,331.323 48.000 C 331.237 48.000,331.167 48.188,331.167 48.417 C 331.167 48.646,331.092 48.833,331.000 48.833 C 330.908 48.833,330.833 49.058,330.833 49.333 C 330.833 49.608,330.759 49.833,330.669 49.833 C 330.578 49.833,330.456 50.133,330.397 50.500 C 330.339 50.867,330.225 51.167,330.145 51.167 C 330.065 51.167,330.000 51.317,330.000 51.500 C 330.000 51.683,329.925 51.833,329.833 51.833 C 329.742 51.833,329.667 52.021,329.667 52.250 C 329.667 52.479,329.600 52.667,329.519 52.667 C 329.375 52.667,329.179 53.373,329.115 54.125 C 329.098 54.331,329.027 54.500,328.958 54.500 C 328.890 54.500,328.833 54.762,328.833 55.083 C 328.833 55.404,328.758 55.667,328.667 55.667 C 328.575 55.667,328.500 55.854,328.500 56.083 C 328.500 56.313,328.425 56.500,328.333 56.500 C 328.242 56.500,328.167 56.688,328.167 56.917 C 328.167 57.146,328.084 57.333,327.982 57.333 C 327.881 57.333,327.840 57.443,327.892 57.578 C 327.943 57.713,327.914 57.867,327.826 57.921 C 327.738 57.975,327.667 58.165,327.667 58.343 C 327.667 58.521,327.592 58.667,327.500 58.667 C 327.408 58.667,327.333 58.854,327.333 59.083 C 327.333 59.313,327.258 59.500,327.167 59.500 C 327.075 59.500,327.000 59.688,327.000 59.917 C 327.000 60.146,326.934 60.333,326.852 60.333 C 326.771 60.333,326.654 60.671,326.592 61.083 C 326.530 61.496,326.409 61.833,326.323 61.833 C 326.237 61.833,326.167 62.021,326.167 62.250 C 326.167 62.479,326.092 62.667,326.000 62.667 C 325.908 62.667,325.833 62.812,325.833 62.990 C 325.833 63.168,325.758 63.360,325.667 63.417 C 325.575 63.473,325.500 63.646,325.499 63.802 C 325.498 63.957,325.386 64.298,325.249 64.561 C 325.112 64.823,325.000 65.180,325.000 65.352 C 325.000 65.525,324.925 65.667,324.833 65.667 C 324.742 65.667,324.667 65.854,324.667 66.083 C 324.667 66.313,324.593 66.500,324.502 66.500 C 324.411 66.500,324.289 66.802,324.230 67.170 C 324.171 67.539,324.058 67.881,323.978 67.930 C 323.898 67.979,323.833 68.203,323.833 68.427 C 323.833 68.650,323.777 68.834,323.708 68.835 C 323.539 68.836,323.167 69.661,323.167 70.033 C 323.167 70.198,323.084 70.333,322.982 70.333 C 322.868 70.333,322.837 70.493,322.902 70.750 C 322.962 70.990,322.934 71.167,322.837 71.167 C 322.743 71.167,322.667 71.317,322.667 71.500 C 322.667 71.683,322.592 71.833,322.500 71.833 C 322.408 71.833,322.333 72.021,322.333 72.250 C 322.333 72.479,322.258 72.667,322.167 72.667 C 322.075 72.667,322.000 72.850,322.000 73.073 C 322.000 73.297,321.925 73.527,321.833 73.584 C 321.741 73.641,321.704 73.907,321.752 74.177 C 321.801 74.454,321.765 74.667,321.669 74.667 C 321.576 74.667,321.500 74.854,321.500 75.083 C 321.500 75.313,321.425 75.500,321.333 75.500 C 321.242 75.500,321.167 75.650,321.167 75.833 C 321.167 76.150,321.278 76.167,323.333 76.167 C 325.389 76.167,325.500 76.150,325.500 75.833 C 325.500 75.650,325.575 75.500,325.667 75.500 C 325.758 75.500,325.833 75.313,325.833 75.083 C 325.833 74.854,325.908 74.667,326.000 74.667 C 326.092 74.667,326.167 74.521,326.167 74.343 C 326.167 74.165,326.237 73.976,326.324 73.923 C 326.410 73.869,326.531 73.490,326.593 73.079 C 326.654 72.669,326.771 72.333,326.852 72.333 C 326.934 72.333,327.000 72.146,327.000 71.917 C 327.000 71.688,327.075 71.500,327.167 71.500 C 327.258 71.500,327.333 71.354,327.333 71.177 C 327.333 70.999,327.404 70.809,327.490 70.756 C 327.577 70.703,327.698 70.323,327.759 69.913 L 327.871 69.167 334.255 69.167 C 341.260 69.167,341.167 69.157,341.167 69.851 C 341.167 70.116,341.247 70.333,341.345 70.333 C 341.444 70.333,341.478 70.474,341.421 70.653 C 341.365 70.828,341.398 71.020,341.493 71.079 C 341.589 71.138,341.667 71.369,341.667 71.593 C 341.667 71.817,341.742 72.000,341.833 72.000 C 341.925 72.000,342.000 72.188,342.000 72.417 C 342.000 72.646,342.075 72.833,342.167 72.833 C 342.258 72.833,342.333 72.983,342.333 73.167 C 342.333 73.350,342.403 73.500,342.488 73.500 C 342.573 73.500,342.694 73.913,342.757 74.419 C 342.821 74.924,342.939 75.379,343.019 75.429 C 343.100 75.479,343.167 75.665,343.167 75.843 C 343.167 76.147,343.300 76.167,345.352 76.167 L 347.538 76.167 347.422 75.375 C 347.358 74.940,347.237 74.512,347.153 74.425 C 347.069 74.338,347.000 74.094,347.000 73.883 C 347.000 73.673,346.925 73.500,346.833 73.500 C 346.742 73.500,346.667 73.387,346.667 73.250 C 346.667 73.112,346.602 73.000,346.522 73.000 C 346.442 73.000,346.335 72.683,346.283 72.295 C 346.231 71.908,346.108 71.564,346.011 71.531 C 345.913 71.499,345.833 71.249,345.833 70.976 C 345.833 70.688,345.764 70.523,345.667 70.583 C 345.569 70.643,345.500 70.474,345.500 70.177 C 345.500 69.896,345.426 69.667,345.335 69.667 C 345.245 69.667,345.122 69.365,345.063 68.996 C 345.004 68.628,344.891 68.286,344.811 68.236 C 344.732 68.187,344.667 67.964,344.667 67.740 C 344.667 67.516,344.592 67.333,344.500 67.333 C 344.408 67.333,344.333 67.221,344.333 67.083 C 344.333 66.946,344.268 66.833,344.189 66.833 C 344.109 66.833,344.006 66.549,343.959 66.201 C 343.912 65.853,343.715 65.239,343.520 64.836 C 343.326 64.434,343.167 63.968,343.167 63.802 C 343.167 63.636,343.104 63.500,343.028 63.500 C 342.906 63.500,342.805 63.124,342.391 61.125 C 342.338 60.873,342.229 60.667,342.148 60.667 C 342.066 60.667,342.000 60.517,342.000 60.333 C 342.000 60.150,341.925 60.000,341.833 60.000 C 341.742 60.000,341.667 59.813,341.667 59.583 C 341.667 59.354,341.600 59.167,341.519 59.167 C 341.438 59.167,341.321 58.831,341.259 58.421 C 341.198 58.010,341.077 57.631,340.990 57.577 C 340.904 57.524,340.833 57.335,340.833 57.157 C 340.833 56.979,340.758 56.833,340.667 56.833 C 340.575 56.833,340.500 56.608,340.500 56.333 C 340.500 56.058,340.426 55.833,340.335 55.833 C 340.245 55.833,340.123 55.533,340.064 55.167 C 340.005 54.800,339.892 54.500,339.812 54.500 C 339.732 54.500,339.667 54.275,339.667 54.000 C 339.667 53.725,339.592 53.500,339.500 53.500 C 339.408 53.500,339.333 53.387,339.333 53.250 C 339.333 53.112,339.258 53.000,339.167 53.000 C 339.075 53.000,339.000 52.859,339.000 52.686 C 339.000 52.214,338.470 50.667,338.308 50.667 C 338.230 50.667,338.167 50.442,338.167 50.167 C 338.167 49.892,338.093 49.667,338.002 49.667 C 337.911 49.667,337.789 49.367,337.731 49.000 C 337.672 48.633,337.559 48.333,337.479 48.333 C 337.399 48.333,337.333 48.108,337.333 47.833 C 337.333 47.558,337.258 47.333,337.167 47.333 C 337.075 47.333,337.000 47.221,337.000 47.083 C 337.000 46.946,336.935 46.833,336.855 46.833 C 336.775 46.833,336.659 46.515,336.598 46.125 C 336.347 44.529,336.307 44.500,334.376 44.500 C 332.968 44.500,332.667 44.544,332.667 44.750 M351.667 60.333 L 351.667 76.167 359.280 76.167 C 366.644 76.167,367.193 76.136,368.417 75.657 C 368.600 75.585,368.939 75.485,369.170 75.436 C 369.401 75.387,369.754 75.193,369.955 75.006 C 370.155 74.820,370.398 74.667,370.494 74.667 C 370.736 74.667,372.167 73.193,372.167 72.944 C 372.167 72.832,372.317 72.632,372.500 72.500 C 372.683 72.368,372.833 72.126,372.833 71.963 C 372.833 71.800,372.892 71.667,372.963 71.667 C 373.189 71.667,373.508 70.623,373.613 69.542 C 373.669 68.969,373.779 68.500,373.857 68.500 C 373.936 68.500,374.000 67.975,374.000 67.333 C 374.000 66.692,373.935 66.167,373.856 66.167 C 373.778 66.167,373.673 65.729,373.625 65.194 C 373.534 64.194,373.302 63.623,372.792 63.149 C 372.631 63.000,372.500 62.788,372.500 62.679 C 372.500 62.436,370.081 60.000,369.839 60.000 C 369.744 60.000,369.667 59.925,369.667 59.833 C 369.667 59.742,369.776 59.667,369.909 59.667 C 370.161 59.667,370.737 59.140,371.162 58.522 C 371.297 58.326,371.541 58.123,371.704 58.072 C 371.867 58.020,372.000 57.838,372.000 57.667 C 372.000 57.497,372.113 57.245,372.250 57.107 C 372.387 56.970,372.500 56.777,372.500 56.679 C 372.500 56.580,372.575 56.500,372.667 56.500 C 372.758 56.500,372.833 56.313,372.833 56.083 C 372.833 55.854,372.900 55.667,372.982 55.667 C 373.316 55.667,373.653 51.920,373.347 51.613 C 373.248 51.514,373.167 51.201,373.167 50.917 C 373.167 50.369,372.835 49.503,372.625 49.501 C 372.556 49.501,372.500 49.350,372.500 49.167 C 372.500 48.983,372.425 48.833,372.333 48.833 C 372.242 48.833,372.167 48.724,372.167 48.591 C 372.167 48.458,371.979 48.161,371.750 47.932 C 371.521 47.703,371.333 47.469,371.333 47.412 C 371.333 47.356,371.240 47.212,371.125 47.092 C 371.010 46.972,370.806 46.715,370.672 46.520 C 370.537 46.326,370.291 46.167,370.125 46.167 C 369.959 46.167,369.780 46.054,369.727 45.917 C 369.674 45.779,369.489 45.667,369.316 45.667 C 369.142 45.667,369.000 45.609,369.000 45.539 C 369.000 45.344,367.726 44.836,366.791 44.659 C 366.331 44.571,362.740 44.500,358.811 44.500 L 351.667 44.500 351.667 60.333 M162.000 48.159 C 162.000 48.231,162.330 48.327,162.733 48.373 C 163.292 48.436,163.611 48.600,164.072 49.061 C 164.405 49.394,164.755 49.667,164.849 49.667 C 164.943 49.667,164.973 49.742,164.917 49.833 C 164.860 49.925,164.893 50.000,164.990 50.000 C 165.087 50.000,165.167 50.112,165.167 50.249 C 165.167 50.385,165.317 50.591,165.500 50.705 C 165.683 50.820,165.833 51.031,165.833 51.175 C 165.833 51.319,165.943 51.582,166.078 51.760 C 166.213 51.938,166.325 52.290,166.328 52.542 C 166.331 52.794,166.408 53.000,166.500 53.000 C 166.596 53.000,166.667 53.524,166.667 54.240 C 166.667 54.922,166.742 55.527,166.833 55.583 C 166.938 55.648,167.000 57.363,167.000 60.177 C 167.000 63.059,166.940 64.667,166.833 64.667 C 166.736 64.667,166.667 65.222,166.667 66.000 C 166.667 66.778,166.597 67.333,166.500 67.333 C 166.408 67.333,166.333 67.481,166.333 67.661 C 166.333 68.099,165.823 69.184,165.459 69.520 C 165.298 69.668,165.167 69.871,165.167 69.971 C 165.167 70.205,163.902 71.500,163.673 71.500 C 163.578 71.500,163.500 71.575,163.500 71.667 C 163.500 71.758,163.444 71.821,163.375 71.806 C 163.126 71.752,162.333 72.040,162.333 72.185 C 162.333 72.266,161.996 72.333,161.583 72.333 C 161.171 72.333,160.833 72.408,160.833 72.500 C 160.833 72.594,160.361 72.667,159.750 72.667 C 159.139 72.667,158.667 72.594,158.667 72.500 C 158.667 72.408,158.367 72.333,158.000 72.333 C 157.633 72.333,157.333 72.258,157.333 72.167 C 157.333 72.075,157.218 72.000,157.077 72.000 C 156.316 72.000,153.693 69.457,153.551 68.580 C 153.499 68.261,153.391 68.000,153.312 68.000 C 153.232 68.000,153.167 67.775,153.167 67.500 C 153.167 67.225,153.092 67.000,153.000 67.000 C 152.899 67.000,152.833 66.250,152.833 65.083 C 152.833 63.917,152.768 63.167,152.667 63.167 C 152.562 63.167,152.500 62.028,152.500 60.083 C 152.500 58.139,152.562 57.000,152.667 57.000 C 152.768 57.000,152.833 56.281,152.833 55.177 C 152.833 54.141,152.905 53.309,153.000 53.250 C 153.092 53.193,153.167 52.964,153.167 52.740 C 153.167 52.516,153.238 52.333,153.326 52.333 C 153.413 52.333,153.534 52.071,153.594 51.750 C 153.655 51.429,153.770 51.167,153.852 51.167 C 153.933 51.167,154.000 51.093,154.000 51.003 C 154.000 50.913,154.337 50.487,154.750 50.056 C 155.162 49.626,155.500 49.175,155.500 49.054 C 155.500 48.932,155.650 48.833,155.833 48.833 C 156.017 48.833,156.167 48.759,156.167 48.669 C 156.167 48.578,156.467 48.456,156.833 48.397 C 157.200 48.339,157.500 48.229,157.500 48.153 C 157.500 47.993,159.444 47.891,160.958 47.973 C 161.531 48.003,162.000 48.087,162.000 48.159 M366.625 48.625 C 366.663 48.740,366.795 48.833,366.917 48.833 C 367.215 48.833,368.667 50.296,368.667 50.596 C 368.667 50.727,368.742 50.833,368.833 50.833 C 368.925 50.833,369.000 50.983,369.000 51.167 C 369.000 51.350,369.075 51.500,369.167 51.500 C 369.266 51.500,369.333 52.139,369.333 53.083 C 369.333 54.028,369.266 54.667,369.167 54.667 C 369.075 54.667,369.000 54.851,369.000 55.077 C 369.000 55.434,367.543 57.180,367.253 57.170 C 367.038 57.163,365.833 57.759,365.833 57.873 C 365.833 57.943,363.602 58.000,360.875 58.000 L 355.917 58.000 355.963 53.156 L 356.010 48.312 361.283 48.364 C 365.315 48.404,366.572 48.466,366.625 48.625 M334.667 51.333 C 334.667 51.608,334.742 51.833,334.833 51.833 C 334.925 51.833,335.000 52.016,335.000 52.240 C 335.000 52.464,335.076 52.694,335.169 52.752 C 335.263 52.809,335.299 52.921,335.250 53.000 C 335.201 53.079,335.237 53.191,335.331 53.248 C 335.424 53.306,335.500 53.536,335.500 53.760 C 335.500 53.984,335.575 54.167,335.667 54.167 C 335.758 54.167,335.833 54.429,335.833 54.750 C 335.833 55.071,335.908 55.333,336.000 55.333 C 336.092 55.333,336.167 55.596,336.167 55.917 C 336.167 56.237,336.233 56.500,336.314 56.500 C 336.396 56.500,336.513 56.837,336.575 57.250 C 336.636 57.663,336.757 58.000,336.844 58.000 C 336.930 58.000,337.000 58.188,337.000 58.417 C 337.000 58.646,337.075 58.833,337.167 58.833 C 337.258 58.833,337.333 59.021,337.333 59.250 C 337.333 59.479,337.400 59.667,337.481 59.667 C 337.562 59.667,337.679 60.004,337.741 60.417 C 337.803 60.829,337.924 61.167,338.010 61.167 C 338.096 61.167,338.167 61.354,338.167 61.583 C 338.167 61.813,338.242 62.000,338.333 62.000 C 338.425 62.000,338.500 62.225,338.500 62.500 C 338.500 62.775,338.565 63.000,338.645 63.000 C 338.725 63.000,338.839 63.300,338.897 63.667 C 338.956 64.033,339.078 64.333,339.169 64.333 C 339.259 64.333,339.333 64.552,339.333 64.819 C 339.333 65.087,339.427 65.343,339.542 65.390 C 339.656 65.436,337.313 65.474,334.333 65.474 C 331.354 65.474,329.010 65.436,329.125 65.390 C 329.240 65.343,329.333 65.087,329.333 64.819 C 329.333 64.552,329.408 64.333,329.500 64.333 C 329.592 64.333,329.667 64.146,329.667 63.917 C 329.667 63.688,329.733 63.500,329.814 63.500 C 329.896 63.500,330.013 63.163,330.075 62.750 C 330.136 62.337,330.257 62.000,330.344 62.000 C 330.430 62.000,330.500 61.813,330.500 61.583 C 330.500 61.354,330.575 61.167,330.667 61.167 C 330.758 61.167,330.833 60.979,330.833 60.750 C 330.833 60.521,330.908 60.333,331.000 60.333 C 331.092 60.333,331.167 60.183,331.167 60.000 C 331.167 59.817,331.235 59.667,331.318 59.667 C 331.401 59.667,331.520 59.292,331.583 58.833 C 331.646 58.375,331.766 58.000,331.849 58.000 C 331.932 58.000,332.000 57.850,332.000 57.667 C 332.000 57.483,332.075 57.333,332.167 57.333 C 332.258 57.333,332.333 57.146,332.333 56.917 C 332.333 56.688,332.403 56.500,332.488 56.500 C 332.573 56.500,332.694 56.087,332.757 55.583 C 332.820 55.079,332.938 54.667,333.019 54.667 C 333.100 54.667,333.167 54.554,333.167 54.417 C 333.167 54.279,333.242 54.167,333.333 54.167 C 333.425 54.167,333.500 54.025,333.500 53.852 C 333.500 53.680,333.612 53.323,333.749 53.061 C 333.886 52.798,333.998 52.415,333.999 52.208 C 334.000 52.002,334.075 51.833,334.167 51.833 C 334.258 51.833,334.333 51.608,334.333 51.333 C 334.333 51.058,334.408 50.833,334.500 50.833 C 334.592 50.833,334.667 51.058,334.667 51.333 M366.167 62.167 C 366.167 62.258,366.421 62.333,366.732 62.333 C 367.089 62.333,367.334 62.429,367.397 62.591 C 367.451 62.733,367.716 62.926,367.986 63.020 C 368.298 63.129,368.538 63.369,368.647 63.681 C 368.741 63.951,368.934 64.216,369.075 64.270 C 369.217 64.324,369.333 64.505,369.333 64.671 C 369.333 64.836,369.427 65.004,369.542 65.042 C 369.834 65.139,369.828 69.196,369.536 69.294 C 369.425 69.331,369.333 69.466,369.333 69.595 C 369.333 69.810,367.782 71.500,367.585 71.500 C 367.537 71.500,367.110 71.688,366.635 71.917 C 365.773 72.332,365.758 72.333,360.844 72.333 L 355.917 72.333 355.917 67.167 L 355.917 62.000 361.042 62.000 C 364.347 62.000,366.167 62.059,366.167 62.167 M285.333 65.833 C 285.333 66.475,285.402 67.000,285.486 67.000 C 285.637 67.000,285.783 70.293,285.871 75.708 L 285.917 78.500 282.708 78.500 L 279.500 78.500 279.500 76.333 L 279.500 74.167 277.125 74.166 L 274.750 74.166 274.805 76.333 L 274.860 78.500 271.263 78.500 L 267.667 78.500 267.667 77.260 C 267.667 76.578,267.742 75.973,267.833 75.917 C 267.925 75.860,268.000 75.151,268.000 74.342 C 268.000 72.910,268.012 72.867,268.417 72.765 C 268.646 72.707,268.833 72.587,268.833 72.497 C 268.833 72.407,268.993 72.333,269.189 72.333 C 269.384 72.333,269.666 72.193,269.814 72.022 C 269.962 71.851,270.327 71.658,270.625 71.592 C 270.923 71.527,271.167 71.404,271.167 71.320 C 271.167 71.236,271.317 71.167,271.500 71.167 C 271.683 71.167,271.833 71.092,271.833 71.000 C 271.833 70.908,271.946 70.833,272.083 70.833 C 272.221 70.833,272.333 70.767,272.333 70.685 C 272.333 70.604,272.596 70.488,272.917 70.428 C 273.237 70.367,273.500 70.247,273.500 70.159 C 273.500 70.072,273.651 70.000,273.836 70.000 C 274.150 70.000,274.814 69.706,275.000 69.484 C 275.046 69.429,275.308 69.333,275.583 69.270 C 276.102 69.152,277.521 68.501,277.667 68.315 C 277.712 68.256,277.994 68.156,278.292 68.091 C 278.590 68.026,278.833 67.904,278.833 67.820 C 278.833 67.736,278.983 67.667,279.167 67.667 C 279.350 67.667,279.500 67.592,279.500 67.500 C 279.500 67.408,279.612 67.333,279.750 67.333 C 279.887 67.333,280.001 67.277,280.001 67.208 C 280.002 67.140,280.452 66.943,281.001 66.772 C 281.551 66.601,282.000 66.395,282.000 66.314 C 282.000 66.233,282.133 66.167,282.297 66.167 C 282.460 66.167,282.701 66.017,282.833 65.833 C 282.965 65.650,283.239 65.500,283.442 65.500 C 283.644 65.500,283.922 65.387,284.060 65.250 C 284.197 65.112,284.390 65.000,284.488 65.000 C 284.586 65.000,284.667 64.925,284.667 64.833 C 284.667 64.742,284.817 64.667,285.000 64.667 C 285.302 64.667,285.333 64.778,285.333 65.833 " stroke="none" fill="#ffffff" fill-rule="evenodd"></path><path id="path2" d="M285.875 76.250 C 285.877 76.617,285.911 76.747,285.951 76.540 C 285.991 76.332,285.990 76.032,285.948 75.873 C 285.906 75.714,285.874 75.883,285.875 76.250 M288.730 80.503 C 288.528 80.706,265.039 80.822,264.929 80.621 C 264.890 80.550,264.878 80.587,264.901 80.704 C 264.985 81.116,288.307 81.080,288.833 80.667 C 289.063 80.488,289.171 80.339,289.075 80.337 C 288.979 80.335,288.824 80.410,288.730 80.503 " stroke="none" fill="#ffffff" fill-rule="evenodd"></path><path id="path3" d="M243.178 3.478 C 242.977 3.854,242.932 6.439,243.125 6.558 C 243.194 6.600,243.226 6.023,243.197 5.276 C 243.133 3.662,243.357 3.156,243.986 3.492 C 244.309 3.665,244.689 3.623,244.486 3.436 C 244.174 3.149,243.340 3.176,243.178 3.478 M252.423 7.343 C 252.476 7.430,252.610 7.500,252.721 7.500 C 252.831 7.500,253.209 7.654,253.560 7.842 C 253.911 8.030,254.276 8.158,254.371 8.126 C 254.466 8.095,254.197 7.925,253.772 7.750 C 253.347 7.575,253.000 7.388,253.000 7.335 C 253.000 7.281,252.848 7.226,252.663 7.212 C 252.478 7.198,252.370 7.257,252.423 7.343 M254.667 8.107 C 254.667 8.202,254.858 8.367,255.091 8.473 C 255.609 8.709,255.667 8.712,255.667 8.500 C 255.667 8.408,255.532 8.333,255.367 8.333 C 255.202 8.333,254.977 8.243,254.867 8.133 C 254.745 8.012,254.667 8.002,254.667 8.107 M256.583 9.167 C 256.640 9.258,256.851 9.328,257.052 9.322 C 257.404 9.310,257.405 9.305,257.083 9.167 C 256.625 8.970,256.461 8.970,256.583 9.167 M252.917 11.287 C 253.100 11.332,253.362 11.455,253.500 11.560 C 253.717 11.725,253.720 11.712,253.521 11.458 C 253.395 11.298,253.133 11.175,252.938 11.186 C 252.601 11.204,252.600 11.209,252.917 11.287 M264.728 14.417 C 264.728 15.333,264.756 15.687,264.790 15.203 C 264.824 14.718,264.823 13.968,264.789 13.536 C 264.755 13.104,264.727 13.500,264.728 14.417 M258.000 13.500 C 258.000 13.592,258.169 13.666,258.375 13.664 C 258.678 13.662,258.702 13.631,258.500 13.500 C 258.177 13.291,258.000 13.291,258.000 13.500 M257.000 15.667 C 256.798 15.797,256.822 15.829,257.125 15.831 C 257.331 15.832,257.500 15.758,257.500 15.667 C 257.500 15.458,257.323 15.458,257.000 15.667 M258.625 18.652 C 258.282 18.812,257.956 18.989,257.901 19.044 C 257.726 19.218,258.568 18.955,258.930 18.722 C 259.121 18.599,259.339 18.555,259.415 18.624 C 259.491 18.693,259.499 18.656,259.434 18.542 C 259.368 18.427,259.299 18.339,259.282 18.347 C 259.264 18.354,258.969 18.492,258.625 18.652 M255.426 20.056 C 255.163 20.248,255.159 20.278,255.395 20.278 C 255.544 20.278,255.667 20.218,255.667 20.144 C 255.667 20.071,255.779 20.054,255.917 20.106 C 256.054 20.159,256.167 20.119,256.167 20.018 C 256.167 19.767,255.796 19.786,255.426 20.056 M244.003 21.457 C 243.680 21.583,243.265 22.000,243.462 22.000 C 243.656 22.000,244.667 21.500,244.667 21.404 C 244.667 21.309,244.308 21.337,244.003 21.457 M243.083 22.335 C 242.853 22.706,243.044 25.245,243.317 25.453 C 243.649 25.706,243.833 25.720,243.833 25.490 C 243.833 25.393,243.762 25.358,243.675 25.411 C 243.365 25.603,243.188 24.873,243.219 23.530 C 243.253 22.100,243.249 22.065,243.083 22.335 M245.083 24.737 C 244.808 24.863,244.433 25.020,244.250 25.086 C 244.032 25.164,243.991 25.233,244.130 25.285 C 244.248 25.329,244.526 25.245,244.749 25.099 C 244.972 24.953,245.270 24.833,245.411 24.833 C 245.552 24.833,245.667 24.758,245.667 24.667 C 245.667 24.462,245.690 24.459,245.083 24.737 M262.712 80.820 C 262.692 81.191,262.706 81.205,262.818 80.917 C 262.910 80.681,263.163 80.553,263.682 80.478 L 264.417 80.373 263.576 80.382 C 262.791 80.389,262.733 80.419,262.712 80.820 M288.808 80.674 C 288.375 80.997,288.105 81.003,276.599 80.961 C 268.810 80.932,264.852 80.973,264.889 81.083 C 264.925 81.192,269.083 81.265,276.801 81.293 L 288.658 81.336 288.923 80.930 C 289.152 80.581,289.303 80.530,290.000 80.562 C 290.446 80.582,290.774 80.539,290.729 80.466 C 290.565 80.200,289.253 80.342,288.808 80.674 M262.720 82.333 C 262.720 82.929,262.750 83.173,262.787 82.875 C 262.824 82.577,262.824 82.090,262.787 81.792 C 262.750 81.494,262.720 81.737,262.720 82.333 " stroke="none" fill="#b44c4c" fill-rule="evenodd"></path><path id="path4" d="M285.539 24.333 C 285.539 24.654,285.573 24.785,285.615 24.625 C 285.657 24.465,285.657 24.202,285.615 24.042 C 285.573 23.881,285.539 24.012,285.539 24.333 M274.731 76.500 C 274.731 77.646,274.758 78.115,274.790 77.542 C 274.823 76.969,274.823 76.031,274.790 75.458 C 274.758 74.885,274.731 75.354,274.731 76.500 " stroke="none" fill="#ffffff" fill-rule="evenodd"></path></g></svg>