<svg id="svg" version="1.1" xmlns="http://www.w3.org/2000/svg" xmlns:xlink="http://www.w3.org/1999/xlink" width="400" height="545.2736318407959" viewBox="0, 0, 400,545.2736318407959"><g id="svgg"><path id="path0" d="M0.095 155.473 C 0.180 272.978,0.305 312.160,0.608 315.920 C 3.365 350.216,8.659 374.194,19.244 400.332 C 47.213 469.396,107.506 519.054,192.998 543.439 C 200.812 545.668,199.455 545.683,207.818 543.276 C 322.648 510.230,388.954 434.299,398.826 324.544 C 399.966 311.874,400.000 306.922,400.000 153.317 L 400.000 0.000 199.991 0.000 L -0.018 0.000 0.095 155.473 M384.411 158.990 C 384.411 302.860,384.368 308.794,383.227 321.725 C 374.097 425.187,314.339 494.907,206.686 527.695 L 200.107 529.699 194.001 527.854 C 86.918 495.513,27.048 427.112,16.921 325.539 C 15.429 310.571,15.474 315.310,15.354 162.106 L 15.239 15.589 199.825 15.589 L 384.411 15.589 384.411 158.990 M319.900 34.031 C 284.754 36.703,263.333 58.956,263.353 92.773 C 263.369 120.013,277.004 140.117,300.752 147.915 C 320.277 154.327,346.166 151.323,362.105 140.797 C 362.240 140.708,358.557 119.309,358.375 119.127 C 358.282 119.034,357.870 119.274,357.459 119.660 C 353.430 123.446,336.914 128.985,328.000 129.540 C 301.287 131.206,284.852 107.867,292.395 78.982 C 298.865 54.203,327.823 47.174,353.498 64.152 C 354.829 65.032,355.969 65.696,356.032 65.629 C 356.094 65.561,356.992 60.655,358.027 54.726 C 359.061 48.798,359.987 43.620,360.085 43.220 C 360.588 41.149,345.932 35.959,335.987 34.686 C 332.060 34.183,322.837 33.808,319.900 34.031 M114.428 70.162 C 114.428 111.719,114.358 112.685,110.914 118.905 C 103.728 131.886,77.800 132.889,69.287 120.516 C 64.689 113.833,64.880 115.854,64.760 72.554 L 64.657 35.489 51.047 35.489 L 37.437 35.489 37.573 73.383 C 37.705 110.176,37.729 111.383,38.405 114.925 C 42.878 138.396,60.796 151.244,89.055 151.244 C 117.159 151.244,135.225 138.450,140.367 114.907 C 141.079 111.647,141.089 111.165,141.202 73.383 L 141.317 35.158 127.873 35.158 L 114.428 35.158 114.428 70.162 M163.516 92.525 L 163.516 149.296 187.645 149.154 C 207.965 149.035,212.272 148.927,214.925 148.472 C 238.505 144.430,249.278 134.106,249.242 115.589 C 249.218 103.225,244.000 95.401,232.333 90.232 L 229.499 88.976 231.914 87.556 C 249.611 77.151,248.062 50.914,229.192 41.454 C 219.733 36.712,215.134 36.120,186.153 35.914 L 163.516 35.753 163.516 92.525 M207.930 55.539 C 216.619 57.310,220.956 63.568,218.751 71.153 C 216.714 78.162,211.042 80.802,197.264 81.157 L 189.718 81.350 189.718 67.990 L 189.718 54.629 197.595 54.834 C 202.513 54.961,206.396 55.226,207.930 55.539 M205.023 99.514 C 216.691 100.682,222.790 105.541,223.160 113.965 C 223.660 125.371,216.152 129.993,197.098 130.010 L 189.718 130.017 189.718 114.594 L 189.718 99.171 195.653 99.171 C 198.917 99.171,203.134 99.325,205.023 99.514 M85.240 163.724 C 77.916 164.409,72.590 165.582,65.837 168.000 C 50.900 173.348,48.548 173.962,41.542 174.343 L 37.479 174.563 37.479 187.662 L 37.479 200.761 40.988 200.534 C 47.978 200.082,52.626 198.926,61.999 195.308 C 73.131 191.011,79.043 189.754,89.413 189.477 C 102.492 189.128,108.894 190.365,124.212 196.202 C 140.815 202.527,151.977 202.262,170.813 195.096 C 192.589 186.811,208.800 187.140,232.670 196.352 C 248.423 202.431,260.440 202.168,278.275 195.353 C 291.027 190.481,295.735 189.574,308.292 189.574 C 320.844 189.574,325.541 190.478,338.308 195.349 C 348.143 199.102,351.909 200.043,358.977 200.516 L 362.521 200.754 362.521 187.657 L 362.521 174.561 359.121 174.339 C 352.343 173.898,347.979 172.848,339.025 169.506 C 317.213 161.363,299.948 161.335,278.272 169.407 C 267.668 173.356,262.542 174.456,254.726 174.456 C 245.813 174.456,242.167 173.633,226.866 168.171 C 208.021 161.445,190.442 161.847,170.040 169.472 C 152.892 175.881,141.406 176.188,125.871 170.650 C 123.499 169.805,119.917 168.532,117.910 167.821 C 108.518 164.494,95.063 162.807,85.240 163.724 M199.858 203.361 C 199.763 203.793,194.974 238.325,189.217 280.100 C 183.460 321.874,178.717 356.245,178.678 356.479 C 178.639 356.714,162.935 330.627,143.781 298.509 C 124.627 266.391,108.915 240.303,108.866 240.537 C 108.817 240.771,115.408 269.544,123.513 304.478 C 131.618 339.411,138.200 368.043,138.141 368.104 C 138.056 368.190,74.209 307.271,65.432 298.729 C 64.297 297.624,63.296 296.792,63.209 296.880 C 63.121 296.967,71.487 317.556,81.800 342.632 C 92.112 367.709,100.841 388.952,101.197 389.840 L 101.845 391.454 100.259 390.309 C 99.387 389.679,85.482 379.351,69.359 367.357 C 53.236 355.364,39.838 345.472,39.586 345.375 C 39.068 345.176,39.475 346.343,44.166 358.504 C 75.572 439.915,109.533 473.060,192.371 503.150 L 199.834 505.860 201.658 505.297 C 214.226 501.415,236.451 492.215,250.912 484.909 C 297.972 461.134,325.269 431.493,347.283 380.265 C 352.236 368.739,361.126 345.759,360.770 345.403 C 360.669 345.301,346.655 355.584,329.630 368.253 C 312.604 380.922,298.628 391.251,298.574 391.205 C 298.519 391.159,307.142 370.032,317.735 344.256 C 328.329 318.480,336.949 297.249,336.892 297.076 C 336.834 296.904,320.003 312.829,299.489 332.465 C 278.976 352.101,262.153 368.052,262.106 367.911 C 262.059 367.770,268.665 339.014,276.785 304.008 C 284.906 269.002,291.486 240.297,291.408 240.219 C 291.329 240.141,287.853 245.799,283.682 252.791 C 219.193 360.914,221.742 356.696,221.485 355.688 C 221.351 355.159,216.523 320.547,210.758 278.773 C 204.993 236.998,200.221 202.764,200.154 202.697 C 200.087 202.630,199.954 202.929,199.858 203.361 M84.743 208.166 C 76.500 209.020,71.242 210.326,61.616 213.910 C 51.949 217.509,45.716 218.905,39.317 218.905 L 37.479 218.905 37.479 232.007 L 37.479 245.108 38.605 245.108 C 45.455 245.108,52.176 243.518,63.184 239.295 C 83.105 231.651,100.378 231.809,120.951 239.823 C 140.250 247.340,151.268 247.435,170.123 240.250 C 173.668 238.898,177.833 237.426,179.379 236.978 C 180.925 236.530,182.269 236.084,182.366 235.987 C 182.532 235.821,186.021 211.112,186.054 209.867 C 186.085 208.707,180.597 209.985,172.129 213.108 C 151.113 220.859,141.660 220.949,121.688 213.585 C 109.126 208.954,95.884 207.011,84.743 208.166 M301.658 208.525 C 294.084 209.043,287.594 210.595,277.847 214.220 C 266.287 218.519,261.273 219.471,251.907 219.142 C 243.572 218.849,241.418 218.327,225.871 212.834 C 221.024 211.122,214.136 209.303,213.793 209.645 C 213.639 209.799,217.176 235.861,217.379 236.063 C 217.437 236.121,218.588 236.474,219.936 236.848 C 221.285 237.221,225.597 238.729,229.519 240.198 C 242.327 244.995,249.769 246.192,259.963 245.092 C 265.868 244.455,269.220 243.488,280.597 239.138 C 299.142 232.048,317.268 232.359,337.781 240.119 C 347.746 243.888,351.828 244.910,358.549 245.318 L 362.189 245.539 362.189 232.439 L 362.189 219.338 358.622 219.134 C 353.750 218.856,348.681 217.824,343.672 216.091 C 341.360 215.291,336.857 213.736,333.665 212.635 C 323.272 209.050,313.092 207.743,301.658 208.525 M85.075 252.944 C 78.630 253.476,72.468 254.845,65.837 257.220 C 50.913 262.565,48.548 263.183,41.542 263.563 L 37.479 263.784 37.479 276.883 L 37.479 289.982 40.988 289.755 C 47.978 289.303,52.626 288.147,61.999 284.529 C 76.240 279.032,85.361 277.727,98.010 279.378 C 101.476 279.830,104.376 280.138,104.455 280.062 C 104.615 279.907,98.786 253.866,98.478 253.358 C 98.274 253.021,87.987 252.704,85.075 252.944 M301.355 254.017 C 301.116 254.404,295.133 279.991,295.258 280.093 C 295.312 280.138,296.476 280.029,297.844 279.852 C 299.212 279.675,303.690 279.517,307.794 279.500 C 319.990 279.451,325.227 280.523,339.635 286.016 C 347.996 289.204,353.933 290.547,359.661 290.547 L 362.189 290.547 362.189 277.495 L 362.189 264.443 358.292 264.257 C 351.737 263.945,349.243 263.303,334.826 258.211 C 324.994 254.738,319.031 253.731,308.294 253.731 C 304.575 253.731,301.452 253.860,301.355 254.017 M220.561 255.929 C 220.552 257.040,223.627 282.182,223.816 282.535 C 224.067 283.007,231.321 285.823,237.148 287.710 C 241.133 289.001,246.397 290.071,246.755 289.663 C 247.088 289.282,262.355 264.151,262.355 263.983 C 262.355 263.908,258.884 263.840,254.643 263.830 C 244.217 263.806,242.196 263.359,227.095 257.735 C 222.217 255.918,220.565 255.461,220.561 255.929 M175.456 257.201 C 173.723 257.805,170.130 259.121,167.472 260.127 C 158.306 263.593,153.391 264.464,143.975 264.293 L 137.700 264.179 138.750 266.024 C 139.328 267.038,142.786 272.904,146.434 279.059 L 153.068 290.249 154.561 290.043 C 158.276 289.529,174.653 284.330,175.850 283.284 C 175.975 283.174,176.832 277.413,177.754 270.481 C 178.676 263.549,179.502 257.467,179.591 256.965 C 179.799 255.784,179.470 255.803,175.456 257.201 " stroke="none" fill="#ffffff" fill-rule="evenodd"></path><path id="path1" d="" stroke="none" fill="#ffffff" fill-rule="evenodd"></path><path id="path2" d="" stroke="none" fill="#ffffff" fill-rule="evenodd"></path><path id="path3" d="" stroke="none" fill="#ffffff" fill-rule="evenodd"></path><path id="path4" d="" stroke="none" fill="#ffffff" fill-rule="evenodd"></path></g></svg>